<?xml version="1.0" encoding="UTF-8" standalone="no"?>
<!-- Created with Inkscape (http://www.inkscape.org/) -->

<svg
   xmlns:dc="http://purl.org/dc/elements/1.1/"
   xmlns:cc="http://creativecommons.org/ns#"
   xmlns:rdf="http://www.w3.org/1999/02/22-rdf-syntax-ns#"
   xmlns:svg="http://www.w3.org/2000/svg"
   xmlns="http://www.w3.org/2000/svg"
   xmlns:sodipodi="http://sodipodi.sourceforge.net/DTD/sodipodi-0.dtd"
   xmlns:inkscape="http://www.inkscape.org/namespaces/inkscape"
   version="1.1"
   id="svg223"
   width="413.33331"
   height="115.78871"
   viewBox="0 0 413.33333 115.78871"
   sodipodi:docname="2222222.svg"
   inkscape:version="0.92.1 r15371">
  <metadata
     id="metadata229">
    <rdf:RDF>
      <cc:Work
         rdf:about="">
        <dc:format>image/svg+xml</dc:format>
        <dc:type
           rdf:resource="http://purl.org/dc/dcmitype/StillImage" />
        <dc:title></dc:title>
      </cc:Work>
    </rdf:RDF>
  </metadata>
  <defs
     id="defs227" />
  <sodipodi:namedview
     pagecolor="#ffffff"
     bordercolor="#666666"
     borderopacity="1"
     objecttolerance="10"
     gridtolerance="10"
     guidetolerance="10"
     inkscape:pageopacity="0"
     inkscape:pageshadow="2"
     inkscape:window-width="1600"
     inkscape:window-height="847"
     id="namedview225"
     showgrid="false"
     fit-margin-top="0"
     fit-margin-left="0"
     fit-margin-right="0"
     fit-margin-bottom="0"
     inkscape:zoom="0.92868869"
     inkscape:cx="129.67249"
     inkscape:cy="83.957479"
     inkscape:window-x="-8"
     inkscape:window-y="-8"
     inkscape:window-maximized="1"
     inkscape:current-layer="svg223" />
  <path
     style="fill:#000000;stroke-width:1.33333325"
     d="m 49.33333,113.25263 c 0,-1.32078 1.25237,-6.45611 2.78304,-11.41184 2.25914,-7.314279 4.12521,-10.352629 9.91294,-16.140359 6.47182,-6.4718 13.41979,-10.79211 14.92896,-9.28294 1.40527,1.40528 -3.96288,17.49687 -7.60092,22.78459 C 61.98486,109.91763 49.33333,118.795 49.33333,113.25263 Z m 65.68077,0.0501 c -1.50875,-1.61944 -3.68785,-6.70524 -4.84247,-11.30179 -1.15461,-4.596539 -2.47977,-9.348839 -2.94478,-10.560659 -0.72915,-1.90014 0.2712,-2.20331 7.27006,-2.20331 8.06614,0 8.13142,0.0311 10.72152,5.10811 1.43328,2.80946 4.70491,6.709059 7.2703,8.665769 4.88738,3.7278 7.25282,8.35123 5.2813,10.32275 -0.63884,0.63884 -5.40306,1.55574 -10.58716,2.03754 -8.61196,0.8004 -9.66241,0.62186 -12.16877,-2.06841 z m 120.65256,-0.98487 c -1.55182,-0.40552 -2.33334,-1.91676 -2.33334,-4.51198 0,-4.54103 -0.11186,-4.49696 4.84759,-1.91046 7.98776,4.1659 17.15877,1.49942 16.27904,-4.73316 -0.34237,-2.425579 -2.49848,-4.341059 -8.43409,-7.492839 -11.90139,-6.31957 -15.18467,-11.95117 -11.25188,-19.29965 2.6878,-5.02221 13.89394,-7.85865 22.22601,-5.62574 2.04708,0.54858 3,1.81337 3,3.98178 0,3.64724 -0.0604,3.66339 -6.51197,1.74183 -7.11091,-2.11793 -12.1547,0.1148 -12.1547,5.38053 0,3.50441 0.8834,4.4526 7,7.51341 10.59184,5.30028 13,8.01922 13,14.677699 0,8.16888 -4.23618,11.25062 -15.17981,11.04302 -4.48444,-0.0851 -9.20352,-0.42906 -10.48685,-0.76444 z m 34.99999,-23.080889 v -24 h 3.33334 c 3.18572,0 3.33333,0.35478 3.33333,8.01165 v 8.01164 l 7.22329,-0.84896 c 6.56782,-0.7719 7.53578,-0.53648 10.66667,2.59442 3.24524,3.24524 3.44337,4.21408 3.44337,16.83732 v 13.393929 h -3.33333 c -3.30328,0 -3.33333,-0.10587 -3.33333,-11.74516 0,-13.597229 -1.43331,-16.716629 -7.36819,-16.035889 -5.41176,0.62073 -7.25523,5.03961 -7.27883,17.447719 -0.0193,10.12809 -0.0859,10.33333 -3.35298,10.33333 h -3.33334 z m 40.943,21.312479 c -10.52185,-8.27648 -6.30418,-27.685609 6.53978,-30.095149 12.25301,-2.29868 19.36757,3.12452 20.25857,15.4425 0.55313,7.646899 0.39289,8.139259 -4.11624,12.648399 -4.22216,4.22216 -5.42115,4.69177 -11.97863,4.69177 -5.28677,0 -8.22464,-0.73767 -10.70348,-2.68752 z m 15.03788,-2.63557 c 3.20736,-1.71654 5.85488,-9.821189 4.70868,-14.414389 -2.05132,-8.22032 -10.0294,-11.00636 -15.30428,-5.34444 -4.01917,4.31407 -3.73265,13.522409 0.55412,17.809189 3.52643,3.52644 6.14516,4.03488 10.04148,1.94964 z m 25.07162,3.88196 c -3.23042,-1.84022 -5.03643,-9.55779 -5.04506,-21.558869 l -0.007,-10.33333 h 4 4 v 12.57142 c 0,13.212459 1.38812,16.761909 6.55526,16.761909 5.09125,0 7.26489,-4.80533 7.86662,-17.390949 0.55106,-11.52573 0.68158,-11.94238 3.74122,-11.94238 3.16681,0 3.17024,0.0178 3.17024,16.45253 v 16.452549 l -11,0.1432 c -6.05,0.0788 -12.02638,-0.44148 -13.28084,-1.15608 z m 37.0231,-1.52222 c -1.49587,-2.13564 -2.0756,-6.2322 -2.0756,-14.666659 0,-10.81443 -0.20253,-11.70332 -2.66667,-11.70332 -1.48148,0 -2.66666,-0.8889 -2.66666,-2 0,-1.11111 1.18518,-2 2.66666,-2 2.07408,0 2.66667,-0.8889 2.66667,-4 0,-2.2 0.55093,-4 1.22428,-4 0.67336,0 2.17336,-0.36419 3.33333,-0.80932 1.68296,-0.64581 2.10906,0.16232 2.10906,4 0,4.4548 0.29486,4.80932 4,4.80932 5.17357,0 5.46058,3.65481 0.33333,4.24477 l -3.66667,0.42189 v 11.33334 11.333329 l 3.66667,0.42189 c 2.59033,0.29806 3.66667,1.1787 3.66667,3 0,3.9574 -9.7585,3.65883 -12.59107,-0.38524 z m -225.68831,-5.07065 c -3.72487,-1.48368 -10.60531,-10.888019 -11.73758,-16.043179 -1.28783,-5.86352 -5.09707,-5.25579 -4.4015,0.70221 l 0.53993,4.62501 -4.06073,-2.71317 c -9.06957,-6.05983 -12.98041,-7.0706 -27.90135,-7.21128 -14.48286,-0.13655 -14.51353,-0.14377 -18.21588,-4.28741 -7.94702,-8.89427 -7.91584,-25.9376 0.062,-33.91551 3.37352,-3.37352 4.72498,-3.7893 12.31655,-3.7893 11.51185,0 20.84649,-3.00514 28.7566,-9.25771 l 6.58627,-5.20615 -1.35659,5.56527 c -1.75483,7.199 -3.74328,9.37364 -11.70161,12.79723 -7.89672,3.39709 -9.27339,5.68524 -9.27339,15.41325 0,8.83087 2.88273,15.35477 6.78484,15.35477 1.494,0 5.98036,1.59823 9.96971,3.55161 3.98933,1.95339 7.63562,3.16934 8.10286,2.7021 0.46724,-0.46724 0.17388,-7.01547 -0.65192,-14.55161 -1.42261,-12.98276 -1.3681,-16.00327 0.54795,-30.36876 1.76644,-13.24374 8.27814,-22.66667 15.66377,-22.66667 11.53489,0 20.91612,22.449 20.91612,50.05167 0,26.53822 -9.26585,43.900089 -20.94605,39.247629 z m 7.36357,-14.965969 c 6.29519,-12.30488 5.08608,-45.13832 -2.11637,-57.47064 -5.2664,-9.01732 -9.91359,-4.23357 -12.36227,12.72556 -1.53457,10.62822 -0.81512,21.32087 2.27056,33.74508 2.3752,9.56348 4.99359,14 8.26265,14 1.32586,0 3.1013,-1.35 3.94543,-3 z m -10.41752,-29.66666 c 0,-10.5575 0.88808,-11.77859 5.33333,-7.33334 3.48591,3.48591 3.61536,12.06148 0.22835,15.12668 -4.57381,4.13926 -5.56168,2.75499 -5.56168,-7.79334 z m 36.66667,28.78234 c -6.38612,-2.24567 -9.08031,-5.54528 -6.05464,-7.41524 1.73257,-1.0708 16.07157,1.72835 18.35996,3.58407 2.20738,1.79005 -0.26367,6.41841 -3.35223,6.27882 -1.25753,-0.0568 -5.28643,-1.15828 -8.95309,-2.44765 z M 15.65194,85.238451 c -2.7581,-0.50589 -5.34504,-1.2501 -5.74876,-1.65382 C 8.60522,82.286671 24.42486,70.280231 32,66.814071 c 5.73665,-2.62492 10.15594,-3.48565 20.29715,-3.95325 7.13011,-0.32875 14.5095,-0.20979 16.39863,0.26436 l 3.43481,0.86208 -5.50742,5.29153 c -3.0291,2.91035 -5.74346,5.29154 -6.03192,5.29154 -0.28846,0 -4.29711,1.72791 -8.9081,3.83978 -7.5474,3.45678 -15.38681,5.54117 -27.01649,7.18332 -2.2,0.31064 -6.25662,0.1509 -9.01472,-0.35498 z M 193.7811,60.480711 c -1.25464,-3.26956 0.87561,-4.36837 10.34698,-5.33707 7.64715,-0.78213 8.91154,-0.59518 9.68967,1.43259 1.61259,4.20232 -1.5828,5.99411 -10.68953,5.99411 -6.52868,0 -8.73448,-0.49312 -9.34712,-2.08963 z M 56.66666,52.433991 C 43.21127,48.790161 30.56238,41.318431 20.68612,31.180231 12.17597,22.444361 0,4.7081807 0,1.0476807 c 0,-3.42961 24.37741,2.12442 37.33333,8.50584 14.49037,7.1372203 33.9008,28.6329203 37.9408,42.0168203 0.8558,2.8351 0.55252,2.9909 -5.51762,2.83452 -3.53276,-0.0911 -9.42318,-0.97791 -13.08985,-1.97087 z m 191.70006,-1.82491 c -6.708,-1.59376 -11.03545,-5.09234 -13.7825,-11.14269 -8.82151,-19.42921 7.59465,-36.6602803 30.55214,-32.0687703 3.42305,0.6846 4.28539,1.62153 5.00041,5.4329203 1.20567,6.42676 -1.29856,8.56165 -3.97401,3.3879 -2.39404,-4.62956 -4.46193,-5.6481 -11.46704,-5.6481 -9.83416,0 -16.879,12.78842 -13.41462,24.35146 2.40108,8.01407 7.94148,12.98187 14.4782,12.98187 4.38526,0 6.00353,-0.80381 9.39517,-4.66667 6.32798,-7.20717 8.58409,-6.07534 4.99801,2.50736 -1.62573,3.89092 -2.6084,4.526 -8.18609,5.29051 -7.20843,0.98803 -7.71591,0.97213 -13.59967,-0.42579 z m 30.29993,-4.03874 c -2.66328,-2.66328 -3.40265,-7.19728 -1.83842,-11.2736 1.09866,-2.86306 7.4532,-6.05471 12.10554,-6.08015 5.41767,-0.0296 7.52599,-1.76383 6.41188,-5.27408 -0.79561,-2.50672 -1.68645,-2.87203 -5.80936,-2.38224 -2.67829,0.31817 -5.91964,1.03979 -7.20297,1.6036 -1.81309,0.79655 -2.33333,0.39139 -2.33333,-1.81721 0,-5.601 13.10818,-7.43482 19.15352,-2.67955 3.39401,2.66973 3.51314,3.23489 3.51314,16.66667 v 13.90322 h -10.66666 c -8.8889,0 -11.11111,-0.44444 -13.33334,-2.66666 z m 14.66667,-4 c 1.46667,-1.46667 2.66667,-4.16667 2.66667,-6 0,-2.75894 -0.63184,-3.32519 -3.66667,-3.28608 -7.65741,0.0987 -12.45929,6.61317 -7.53093,10.21688 3.29308,2.40796 5.42476,2.17537 8.53093,-0.9308 z m 20,-9.76771 v -16.43437 l 10.66357,-0.1152 c 15.63868,-0.16894 16.54367,0.82797 17.12446,18.86381 l 0.4547,14.12013 h -3.4547 c -3.4485,0 -3.4547,-0.0205 -3.4547,-11.42098 0,-13.45823 -1.24952,-16.57902 -6.63797,-16.57902 -6.10773,0 -8.02869,4.05868 -8.02869,16.96335 0,10.88355 -0.0462,11.03665 -3.33334,11.03665 h -3.33333 z m 37.33333,0 v -16.43437 l 10.66358,-0.1152 c 15.63868,-0.16894 16.54366,0.82797 17.12445,18.86381 l 0.45471,14.12013 h -3.45471 c -3.44849,0 -3.45469,-0.0205 -3.45469,-11.42098 0,-13.45823 -1.24952,-16.57902 -6.63798,-16.57902 -6.10773,0 -8.02869,4.05868 -8.02869,16.96335 0,10.88355 -0.0462,11.03665 -3.33333,11.03665 h -3.33334 z m 38.66667,13.76771 c -2.66328,-2.66328 -3.40266,-7.19728 -1.83843,-11.2736 1.09867,-2.86306 7.4532,-6.05471 12.10555,-6.08015 5.41766,-0.0296 7.52598,-1.76383 6.41188,-5.27408 -0.79562,-2.50672 -1.68646,-2.87203 -5.80936,-2.38224 -2.6783,0.31817 -5.91964,1.03979 -7.20298,1.6036 -1.81309,0.79655 -2.33333,0.39139 -2.33333,-1.81721 0,-5.601 13.10819,-7.43482 19.15352,-2.67955 3.39401,2.66973 3.51315,3.23489 3.51315,16.66667 v 13.90322 h -10.66667 c -8.88889,0 -11.11111,-0.44444 -13.33333,-2.66666 z m 14.0606,-4.60607 c 3.04848,-3.04847 4.53104,-8.73663 2.27273,-8.71983 -0.55,0.004 -3.25,0.6323 -6,1.396 -3.88739,1.07959 -5,2.05703 -5,4.39256 0,3.01632 2.2234,6.204 4.32727,6.204 0.62,0 2.6,-1.47273 4.4,-3.27273 z m -215.83837,-5.61616 c -2.18327,-2.18325 -0.34345,-4.21481 6.99215,-7.72092 8.67066,-4.1442 12.55716,-3.83757 11.87914,0.93719 -0.32414,2.28268 -2.03097,3.54168 -7.09352,5.2324 -7.41126,2.4751 -10.45332,2.8758 -11.77777,1.55133 z"
     id="path233"
     inkscape:connector-curvature="0" />
</svg>
