<?xml version="1.0" encoding="UTF-8" standalone="no"?>
<!-- Created with Inkscape (http://www.inkscape.org/) -->

<svg
   xmlns:dc="http://purl.org/dc/elements/1.1/"
   xmlns:cc="http://creativecommons.org/ns#"
   xmlns:rdf="http://www.w3.org/1999/02/22-rdf-syntax-ns#"
   xmlns:svg="http://www.w3.org/2000/svg"
   xmlns="http://www.w3.org/2000/svg"
   xmlns:sodipodi="http://sodipodi.sourceforge.net/DTD/sodipodi-0.dtd"
   xmlns:inkscape="http://www.inkscape.org/namespaces/inkscape"
   version="1.1"
   id="svg117"
   width="1157.3333"
   height="641.33331"
   viewBox="0 0 1157.3333 641.33331"
   sodipodi:docname="n22.svg"
   inkscape:version="0.92.1 r15371">
  <metadata
     id="metadata123">
    <rdf:RDF>
      <cc:Work
         rdf:about="">
        <dc:format>image/svg+xml</dc:format>
        <dc:type
           rdf:resource="http://purl.org/dc/dcmitype/StillImage" />
        <dc:title></dc:title>
      </cc:Work>
    </rdf:RDF>
  </metadata>
  <defs
     id="defs121" />
  <sodipodi:namedview
     pagecolor="#ffffff"
     bordercolor="#666666"
     borderopacity="1"
     objecttolerance="10"
     gridtolerance="10"
     guidetolerance="10"
     inkscape:pageopacity="0"
     inkscape:pageshadow="2"
     inkscape:window-width="1600"
     inkscape:window-height="847"
     id="namedview119"
     showgrid="false"
     inkscape:zoom="1.3133641"
     inkscape:cx="552.05585"
     inkscape:cy="279.58196"
     inkscape:window-x="-8"
     inkscape:window-y="-8"
     inkscape:window-maximized="1"
     inkscape:current-layer="svg117" />
  <g
     id="g157"
     transform="translate(-12.943859,73.856135)">
    <path
       inkscape:connector-curvature="0"
       id="path143"
       d="m 484.76189,363.23808 c -3.04781,-3.04781 -2.57066,-4.08165 0.57143,-1.23809 1.46667,1.32732 2.66667,2.6203 2.66667,2.87332 0,0.99085 -1.23638,0.36649 -3.2381,-1.63523 z m 13.65476,1.18443 c 0.9625,-0.38516 2.11251,-0.3378 2.55556,0.1052 0.44306,0.44305 -0.34445,0.75818 -1.75,0.70029 -1.55326,-0.064 -1.8692,-0.37992 -0.80556,-0.80555 z m 163.226,-5.75586 c 0,-2.56666 0.2744,-3.61666 0.60977,-2.33333 0.33536,1.28333 0.33536,3.38333 0,4.66667 -0.33537,1.28333 -0.60977,0.23333 -0.60977,-2.33334 z m 96.85391,1.66667 c -1.69268,-2.15835 -1.62993,-2.18664 0.83675,-0.37729 1.46667,1.07582 2.91667,2.12582 3.22223,2.33333 0.30554,0.20751 -0.0709,0.37729 -0.83675,0.37729 -0.76576,0 -2.21576,-1.05 -3.22223,-2.33333 z m -79.45906,-2 c -1.99891,-2.58459 -3.25632,-5 -2.60289,-5 0.32561,0 1.57485,1.5 2.77609,3.33333 2.24779,3.43055 2.1226,4.63514 -0.1732,1.66667 z m 77.44314,-13 c 0,-6.96667 0.22472,-9.81667 0.49939,-6.33333 0.27467,3.48333 0.27467,9.18333 0,12.66666 -0.27467,3.48334 -0.49939,0.63334 -0.49939,-6.33333 z m 9.66844,9.57459 c -0.37121,-0.60064 1.09338,-0.83254 3.25464,-0.51534 2.16128,0.31722 3.92959,0.80864 3.92959,1.09208 0,1.01598 -6.52355,0.49227 -7.18423,-0.57674 z m -260.63013,-2.95228 c -1.73126,-1.44227 -2.57424,-2.62231 -1.87332,-2.62231 0.70092,0 2.36037,1.2 3.68769,2.66667 3.04917,3.36929 2.26008,3.35 -1.81437,-0.0444 z m 22.38011,-0.95564 -3.23241,-3.66667 3.66667,3.23241 c 3.42705,3.02119 4.27812,4.10092 3.23241,4.10092 -0.23883,0 -1.88883,-1.65 -3.66667,-3.66666 z m 133.7974,-3 c 0,-3.3 0.26003,-4.65 0.57783,-3 0.31781,1.65 0.31781,4.35 0,6 -0.3178,1.65 -0.57783,0.3 -0.57783,-3 z m -162.27742,-0.9425 c -0.72357,-1.90026 -0.57043,-2.05341 0.7464,-0.7464 0.91123,0.90446 1.32089,1.98032 0.91037,2.39084 -0.41052,0.41052 -1.15606,-0.32948 -1.65677,-1.64444 z m 23.18649,-3.1717 c -0.81855,-1.52947 -1.23712,-3.032 -0.93016,-3.33896 0.30696,-0.30696 1.24271,0.94442 2.07944,2.78085 1.83743,4.03272 0.94279,4.46717 -1.14928,0.55811 z m 152.16638,-1.99691 c 0.064,-1.55327 0.37992,-1.8692 0.80555,-0.80556 0.38516,0.96249 0.3378,2.11251 -0.1052,2.55556 -0.44305,0.44305 -0.75819,-0.34445 -0.70029,-1.75 z m -162.942,-1.55556 c -1.69268,-2.15835 -1.62994,-2.18664 0.83674,-0.37729 1.46667,1.07582 2.91667,2.12582 3.22223,2.33333 0.30555,0.20751 -0.0709,0.37729 -0.83675,0.37729 -0.76576,0 -2.21576,-1.05 -3.22222,-2.33333 z m 22.66666,-1.33333 c -1.64823,-2.10166 -1.60404,-2.15646 0.44501,-0.55188 1.2512,0.9798 2.99391,1.33709 3.87267,0.79398 1.01077,-0.62468 1.24824,-0.42193 0.64639,0.55188 -1.33447,2.15922 -2.8364,1.91899 -4.96407,-0.79398 z m 114.83674,-0.25464 c 0,-0.69006 0.59314,-1.62123 1.31807,-2.06926 0.75581,-0.46712 0.97933,0.0681 0.52401,1.25464 -0.88638,2.3099 -1.84208,2.73252 -1.84208,0.81462 z m -131.99999,-2.66667 c 0,-0.69005 0.59313,-1.62123 1.31807,-2.06925 0.75581,-0.46712 0.97933,0.0681 0.52401,1.25464 -0.88639,2.30989 -1.84208,2.73252 -1.84208,0.81461 z m 152.10526,-0.85647 c 0.064,-1.55326 0.37992,-1.8692 0.80555,-0.80556 0.38516,0.9625 0.3378,2.1125 -0.1052,2.55556 -0.44306,0.44306 -0.75819,-0.34445 -0.7003,-1.75 z m -13.4386,-0.55556 c -3.10301,-0.99376 -3.13148,-1.0767 -0.41203,-1.20042 1.60672,-0.0731 3.29214,0.46709 3.74536,1.20042 0.45323,0.73334 0.63864,1.27352 0.41203,1.20043 -0.22661,-0.0731 -1.91203,-0.61329 -3.74536,-1.20043 z m -181.69203,-0.87458 c 0.9027,-0.36523 2.7027,-0.38746 4,-0.0495 1.29729,0.33805 0.5587,0.63688 -1.6413,0.66405 -2.2,0.0272 -3.26141,-0.24941 -2.3587,-0.61465 z m 22.77537,-0.0363 c 0.96249,-0.38516 2.11251,-0.3378 2.55556,0.1052 0.44305,0.44305 -0.34445,0.75819 -1.75,0.70029 -1.55327,-0.064 -1.8692,-0.37992 -0.80556,-0.80554 z m -30.51759,-4.08915 -3.23241,-3.66666 3.66667,3.23241 c 2.01666,1.77784 3.66666,3.42784 3.66666,3.66667 0,1.0457 -1.07973,0.19464 -4.10092,-3.23242 z m 284.28249,1.20851 c -0.12173,-2.09548 0.69685,-3.35453 2.48509,-3.82217 1.88887,-0.49395 2.66667,-1.8187 2.66667,-4.54184 0,-2.11447 0.47952,-3.84449 1.0656,-3.84449 0.58608,0 0.82044,2.09999 0.52078,4.66666 -0.39989,3.42547 -1.1906,4.66667 -2.97286,4.66667 -1.45788,0 -2.65893,1.19869 -3.00588,3 -0.5772,2.99676 -0.57801,2.99662 -0.7594,-0.1248 z m -235.62878,-0.39277 c -0.57505,-0.93046 -0.38896,-1.2052 0.46065,-0.68011 0.78402,0.48455 1.72935,0.1272 2.10075,-0.79399 0.48333,-1.19885 0.70521,-1.22358 0.78055,-0.0869 0.1521,2.29451 -2.20747,3.39672 -3.34195,1.56109 z m -4.55279,-2.4824 c -1.20172,-0.77662 -1.36617,-1.30066 -0.41202,-1.31292 0.87338,-0.0107 1.9588,0.57958 2.41202,1.31292 1.02307,1.65537 0.5615,1.65537 -2,0 z m 32.10527,-0.77778 c 0.064,-1.55326 0.37992,-1.8692 0.80554,-0.80556 0.38516,0.9625 0.3378,2.1125 -0.1052,2.55556 -0.44305,0.44306 -0.75818,-0.34445 -0.70029,-1.75 z m 112.89473,-0.10533 c 0.91666,-0.36988 2.41666,-0.36988 3.33333,0 0.91667,0.36988 0.16667,0.67252 -1.66667,0.67252 -1.83333,0 -2.58333,-0.30264 -1.66666,-0.67252 z m 32,0 c 0.91666,-0.36988 2.41666,-0.36988 3.33333,0 0.91667,0.36988 0.16667,0.67252 -1.66667,0.67252 -1.83333,0 -2.58333,-0.30264 -1.66666,-0.67252 z m 79.33333,-0.0361 c 1.28333,-0.33536 3.38333,-0.33536 4.66666,0 1.28334,0.33537 0.23334,0.60977 -2.33333,0.60977 -2.56667,0 -3.61667,-0.2744 -2.33333,-0.60977 z m -238.89473,-5.192 c 0.064,-1.55327 0.37992,-1.8692 0.80555,-0.80556 0.38516,0.96249 0.3378,2.11249 -0.1052,2.55556 -0.44306,0.44305 -0.75819,-0.34446 -0.7003,-1.75 z m 8.70267,-4.75831 c 1.38897,-1.94484 2.79206,-3.27817 3.11798,-2.96296 0.32594,0.31522 -0.81049,1.90646 -2.52538,3.53608 l -3.118,2.96296 z m 224.19206,0.65318 c 0.91666,-0.36988 2.41666,-0.36988 3.33333,0 0.91667,0.36988 0.16667,0.67252 -1.66667,0.67252 -1.83333,0 -2.58333,-0.30264 -1.66666,-0.67252 z m -234.22806,-5.22807 c 0.064,-1.55327 0.37992,-1.8692 0.80554,-0.80556 0.38516,0.96249 0.3378,2.11249 -0.1052,2.55556 -0.44305,0.44305 -0.75818,-0.34445 -0.70029,-1.75 z m -11.89475,-5.88889 c 0,-1.83334 0.30264,-2.58334 0.67252,-1.66667 0.36988,0.91667 0.36988,2.41667 0,3.33333 -0.36988,0.91667 -0.67252,0.16667 -0.67252,-1.66666 z m 133.12281,-10.66667 c -2.65045,-2.65045 -3.55084,-9.47779 -1.83843,-13.94027 0.9741,-2.53844 7.34006,-6.08492 10.77222,-6.00121 1.31974,0.0321 0.0595,0.89244 -2.8005,1.91165 -6.2067,2.21188 -7.42578,3.85847 -7.42578,10.02983 0,5.29179 0.8308,6.92139 4.62582,9.0734 1.46667,0.83169 1.91667,1.53043 1,1.55272 -0.91666,0.0223 -2.86666,-1.15945 -4.33333,-2.62612 z m 15.75,1.75585 c 0.96249,-0.38516 2.11251,-0.3378 2.55556,0.1052 0.44305,0.44306 -0.34445,0.75819 -1.75,0.7003 -1.55327,-0.064 -1.8692,-0.37992 -0.80556,-0.80555 z m 40.70708,-9.08918 c 0.005,-5.86667 0.23925,-8.10082 0.52092,-4.96476 0.28165,3.13605 0.27769,7.93605 -0.009,10.66666 -0.2865,2.73062 -0.51695,0.16476 -0.51211,-5.7019 z m 54.20958,7.33333 c -1.80656,-1.80656 -2.61284,-4.27936 -2.49977,-7.66667 l 0.16688,-5 0.91947,5.64191 c 1.00266,6.15245 0.89612,5.9702 4.74676,8.12091 1.46666,0.81918 1.91666,1.50768 1,1.52997 -0.91667,0.0223 -2.86667,-1.15945 -4.33334,-2.62612 z m 15.75,1.75585 c 0.9625,-0.38516 2.11251,-0.3378 2.55556,0.1052 0.44306,0.44306 -0.34445,0.75819 -1.75,0.7003 -1.55326,-0.064 -1.8692,-0.37992 -0.80556,-0.80555 z m -308.41665,-4.42252 c 1.32732,-1.46666 2.7133,-2.66666 3.07997,-2.66666 0.36667,0 -0.41932,1.2 -1.74664,2.66666 -1.32732,1.46667 -2.71331,2.66667 -3.07997,2.66667 -0.36667,0 0.41932,-1.2 1.74664,-2.66667 z m 275.76008,-6.66666 c 0,-4.76667 0.242,-6.71667 0.53778,-4.33334 0.29576,2.38334 0.29576,6.28334 0,8.66667 -0.29578,2.38333 -0.53778,0.43333 -0.53778,-4.33333 z m 25.87215,5.15402 c -2.43584,-1.36316 -3.12238,-5.82105 -1.08992,-7.07717 0.66494,-0.41096 0.8789,0.51504 0.47546,2.05779 -1.04125,3.98177 2.21046,5.57425 6.13348,3.00378 1.74739,-1.14493 2.76978,-1.42269 2.27198,-0.61722 -1.67655,2.7127 -5.39991,3.97094 -7.791,2.63282 z m -256.96557,-0.3241 c 0,-0.27687 1.05,-1.32687 2.33334,-2.33334 2.11474,-1.65849 2.1619,-1.61133 0.50341,0.50342 -1.74183,2.221 -2.83675,2.9273 -2.83675,1.82992 z m -38.91666,-1.74074 c 0.96249,-0.38516 2.1125,-0.3378 2.55556,0.1052 0.44305,0.44306 -0.34446,0.75819 -1.75,0.7003 -1.55327,-0.064 -1.8692,-0.37992 -0.80556,-0.80555 z m 26.91666,-3.6132 c 0,-0.28821 0.93116,-0.88133 2.06926,-1.31806 1.18656,-0.45532 1.72176,-0.2318 1.25464,0.52401 -0.78302,1.26695 -3.3239,1.87393 -3.3239,0.79405 z m 277.54385,-2.14265 c 0,-1.83333 0.30264,-2.58333 0.67252,-1.66667 0.36988,0.91667 0.36988,2.41667 0,3.33334 -0.36988,0.91666 -0.67252,0.16666 -0.67252,-1.66667 z m -272.21051,-0.46151 c 0,-0.30542 2.25,-2.23738 5,-4.29325 4.09498,-3.06136 4.52002,-3.18832 2.34825,-0.70143 -2.52707,2.89375 -7.34825,6.17075 -7.34825,4.99468 z m 32.20826,-3.70048 c -1.44736,-2.3176 -2.01599,-2.45284 -3.94953,-0.93936 -2.04595,1.60146 -2.08067,1.54135 -0.36847,-0.63802 1.81281,-2.30746 2.00097,-2.29531 4.59259,0.2963 1.48628,1.48628 2.41294,2.99171 2.05926,3.34539 -0.35369,0.35369 -1.40392,-0.57525 -2.33385,-2.06431 z m 221.14547,1.8629 c -0.0243,-1.94359 6.84352,-5.72539 10.24671,-5.64239 1.31975,0.0321 0.0596,0.89244 -2.80049,1.91165 -2.86003,1.01923 -5.70084,2.6429 -6.31292,3.60815 -0.81322,1.28244 -1.11838,1.31545 -1.1333,0.12253 z m -93.76198,-6.55899 c 2.42032,-0.9846 0.47913,-4.47525 -2.48873,-4.47525 -1.43642,0 -3.92223,0.63309 -5.52402,1.40689 -2.8133,1.35904 -2.82433,1.33637 -0.32417,-0.66667 3.55097,-2.84492 8.36843,-2.60218 10.03159,0.50546 1.88868,3.52904 1.75098,4.10437 -0.9531,3.98238 -1.28333,-0.0579 -1.61704,-0.39665 -0.74157,-0.75281 z m 110.66666,0 c 2.42032,-0.9846 0.47914,-4.47525 -2.48873,-4.47525 -1.43641,0 -3.92223,0.63309 -5.52401,1.40689 -2.81331,1.35904 -2.82434,1.33637 -0.32418,-0.66667 3.55098,-2.84492 8.36843,-2.60218 10.03159,0.50546 1.88868,3.52904 1.75099,4.10437 -0.95309,3.98238 -1.28334,-0.0579 -1.61704,-0.39665 -0.74158,-0.75281 z m -34.71853,-2.41775 c -0.95194,-2.48073 -4.96537,-2.68872 -7.54225,-0.39084 -1.59004,1.41788 -1.60548,1.31836 -0.10347,-0.66666 0.9711,-1.28334 2.8187,-2.33334 4.10578,-2.33334 2.45248,0 6.21438,3.56339 5.02138,4.75639 -0.38057,0.38057 -1.04724,-0.23392 -1.48149,-1.36555 z m -46.20656,0.10575 c 0,-0.27687 1.05,-1.32687 2.33334,-2.33333 2.11474,-1.6585 2.1619,-1.61134 0.50341,0.50341 -1.74183,2.221 -2.83675,2.92731 -2.83675,1.82992 z m -19.89473,-2.33333 c -0.17487,-3.60503 -4.1136,-5.7867 -11.97672,-6.6339 l -7.46188,-0.80397 6.92565,-0.19603 c 5.502,-0.15573 7.6653,0.4402 10.52387,2.89903 2.0644,1.77572 3.27769,3.90709 2.84628,5 -0.59317,1.50273 -0.77416,1.44676 -0.8572,-0.26513 z m 109.07248,-2.94135 c -1.58995,-2.08587 -4.21402,-3.04685 -10,-3.66223 l -7.84442,-0.83429 6.92566,-0.19603 c 5.5751,-0.1578 7.65516,0.43187 10.66666,3.02388 2.05756,1.77095 3.44102,3.50716 3.07435,3.85826 -0.36667,0.35109 -1.63668,-0.63423 -2.82225,-2.18959 z m -71.84441,0.70956 c 0,-0.83213 -1.65,-2.40811 -3.66667,-3.50217 -2.01667,-1.09406 -2.98313,-2.01322 -2.14771,-2.04258 2.32318,-0.0816 7.94836,4.91592 6.81438,6.05407 -0.55,0.55201 -1,0.32283 -1,-0.50932 z m 36.89409,-0.81959 c -0.42277,-1.10172 -2.74689,-2.57349 -5.16472,-3.27058 -3.09701,-0.89292 -3.55319,-1.30299 -1.54375,-1.38771 3.10643,-0.13093 9.66556,4.46341 8.31243,5.82248 -0.45941,0.46141 -1.18119,-0.0625 -1.60396,-1.16419 z m -207.37513,-2.15624 c -1.73125,-1.44226 -2.57424,-2.6223 -1.87332,-2.6223 0.70092,0 2.36037,1.2 3.68769,2.66666 3.04918,3.3693 2.26008,3.35 -1.81437,-0.0444 z m 110.12548,-0.12106 c 0.90445,-0.91123 1.98032,-1.3209 2.39084,-0.91038 0.41052,0.41052 -0.32948,1.15607 -1.64444,1.65678 -1.90027,0.72357 -2.05342,0.57042 -0.7464,-0.7464 z m 110.66666,0 c 0.90445,-0.91123 1.98032,-1.3209 2.39084,-0.91038 0.41052,0.41052 -0.32948,1.15607 -1.64444,1.65678 -1.90027,0.72357 -2.05341,0.57042 -0.7464,-0.7464 z m -72.3111,-1.16791 -4,-1.01783 3.58797,-0.15776 c 1.97339,-0.0868 3.9588,0.44226 4.41203,1.17559 0.45322,0.73333 0.63864,1.26235 0.41202,1.17559 -0.22661,-0.0868 -2.21202,-0.61579 -4.41202,-1.17559 z m 36,0 -5.33334,-0.95492 4.92131,-0.1892 c 2.70672,-0.104 5.29213,0.41079 5.74536,1.14412 0.45323,0.73333 0.63864,1.24819 0.41203,1.14412 -0.22662,-0.10405 -2.81203,-0.61892 -5.74536,-1.14412 z"
       style="fill:#d7d7d7;stroke-width:1.33333325" />
    <path
       inkscape:connector-curvature="0"
       id="path145"
       d="m 604.99998,361.74755 c -1.28333,-0.33536 -2.33333,-1.18688 -2.33333,-1.89224 0,-0.77286 1.05965,-0.71536 2.66667,0.14468 1.46666,0.78493 2.66666,1.70604 2.66666,2.0469 0,0.34087 -0.15,0.55016 -0.33333,0.4651 -0.18333,-0.0851 -1.38333,-0.42907 -2.66667,-0.76444 z m 22.51911,-1.64322 c 2.30219,-1.40378 4.50481,-3.35154 4.89475,-4.32834 0.45064,-1.1289 0.7473,-1.204 0.81421,-0.20611 0.12027,1.79405 -6.16949,7.09929 -8.40788,7.09179 -0.81777,-0.003 0.39675,-1.15354 2.69892,-2.55734 z m 92.48089,-0.10434 c -1.46667,-1.46667 -2.64843,-3.41667 -2.62612,-4.33334 0.0231,-0.94672 0.616,-0.67948 1.37271,0.61864 0.73269,1.25692 2.64794,3.20692 4.25613,4.33334 1.60817,1.12641 2.19045,2.04802 1.29396,2.04802 -0.89651,0 -2.83001,-1.2 -4.29668,-2.66666 z m 14.66667,2.14265 c 0,-0.28821 0.93116,-0.88133 2.06925,-1.31807 1.18656,-0.45532 1.72176,-0.2318 1.25464,0.52402 -0.78301,1.26694 -3.32389,1.87393 -3.32389,0.79405 z m 12.33624,-4.14265 c -0.0148,-2.93334 0.24614,-4.29034 0.57986,-3.01555 0.33372,1.27479 0.34583,3.67479 0.0269,5.33333 -0.31892,1.65855 -0.59198,0.61555 -0.60678,-2.31778 z m -132.33624,-2.51123 c 0,-0.28119 1.48184,-0.79451 3.29299,-1.14073 1.81113,-0.34622 2.97573,-0.11614 2.58797,0.51124 -0.68277,1.10474 -5.88096,1.66116 -5.88096,0.62949 z m 72.7619,-1.58401 c -3.04781,-3.04782 -2.57066,-4.08166 0.57143,-1.2381 1.46667,1.32732 2.66667,2.62031 2.66667,2.87332 0,0.99086 -1.23638,0.3665 -3.2381,-1.63522 z m 47.43378,0.0952 c 1.20762,-1.46667 2.48802,-3.86667 2.84533,-5.33334 0.6248,-2.56468 0.65556,-2.55984 0.80432,0.12667 0.0851,1.53635 -1.19533,3.93635 -2.84533,5.33333 -2.97538,2.51914 -2.98198,2.5181 -0.80432,-0.12666 z m -8.69763,-1.38488 c -0.45727,-1.19156 -0.83139,-7.16744 -0.83139,-13.27968 0,-7.58684 -0.52885,-11.35998 -1.66666,-11.89096 -1.01363,-0.47303 -0.88303,-0.60575 0.33333,-0.33872 1.55497,0.34134 2.15304,3.38241 2.68779,13.66666 0.74737,14.37352 0.71648,15.07295 -0.52307,11.84274 z m -120.83138,-0.61508 c -3.10302,-0.99376 -3.13148,-1.07671 -0.41203,-1.20043 1.60672,-0.0731 3.29213,0.46709 3.74536,1.20043 0.45323,0.73333 0.63864,1.27352 0.41203,1.20042 -0.22662,-0.0731 -1.91203,-0.61329 -3.74536,-1.20042 z M 716.2767,339.66665 c -0.27067,-12.71534 -0.21103,-12.99661 2.72328,-12.84533 2.17977,0.1124 2.37541,0.31881 0.71553,0.75503 -1.90505,0.50064 -2.35734,2.63404 -2.72328,12.84533 l -0.43881,12.24497 z m 30.75309,7 c 0,-3.3 0.26003,-4.65 0.57783,-3 0.31781,1.65 0.31781,4.35 0,6 -0.3178,1.65 -0.57783,0.3 -0.57783,-3 z m -124.19221,0.87263 c -0.8189,-0.98672 -3.89849,-2.88061 -6.84352,-4.20863 -2.94502,-1.32802 -5.10662,-2.66256 -4.80354,-2.96564 0.84753,-0.84753 10.76652,4.50671 12.72858,6.87086 0.9574,1.1536 1.44074,2.09745 1.07407,2.09745 -0.36667,0 -1.33668,-0.80732 -2.15559,-1.79404 z m 61.26767,-0.31707 c 0.064,-1.55326 0.37992,-1.8692 0.80554,-0.80556 0.38516,0.9625 0.3378,2.11251 -0.1052,2.55556 -0.44305,0.44306 -0.75818,-0.34445 -0.70029,-1.75 z m -52.90999,-3.76785 c -0.47712,-1.24335 -3.94124,-4.0236 -7.69805,-6.17832 -7.61396,-4.36701 -7.46131,-5.33961 0.22256,-1.41793 5.50833,2.81133 10.49859,7.70129 9.19231,9.00756 -0.46712,0.46713 -1.2397,-0.16796 -1.71682,-1.41131 z m 68.80472,-3.35913 c 0,-2.33455 -4.19084,-5.42858 -7.35296,-5.42858 -1.75655,0 -4.08525,1.31742 -5.23811,2.96335 -1.14157,1.62983 -2.0756,2.32283 -2.0756,1.53997 0,-2.33412 4.66372,-5.83665 7.77166,-5.83665 2.96058,0 8.22834,4.26797 8.22834,6.66667 0,0.73333 -0.3,1.33333 -0.66666,1.33333 -0.36667,0 -0.66667,-0.55715 -0.66667,-1.23809 z m -94.51466,-3.53818 c -1.55027,-1.97084 -2.78064,-4.55244 -2.73415,-5.73688 0.0501,-1.278 0.6128,-0.79834 1.38393,1.17982 0.7147,1.83333 2.28286,4.07713 3.48483,4.98622 1.20196,0.90908 1.84759,1.99068 1.43472,2.40355 -0.41285,0.41287 -2.01905,-0.86185 -3.56933,-2.83271 z m 141.49066,-0.55706 c 0,-2.56667 0.2744,-3.61667 0.60977,-2.33334 0.33536,1.28334 0.33536,3.38334 0,4.66667 -0.33537,1.28333 -0.60977,0.23333 -0.60977,-2.33333 z m -70.87073,1.23241 c -0.0579,-1.15549 1.54473,-3.55549 3.5614,-5.33333 l 3.66666,-3.23242 -2.83029,3.33334 c -1.55665,1.83333 -3.15929,4.23333 -3.5614,5.33333 -0.62605,1.71261 -0.74624,1.69811 -0.83637,-0.10093 z m -94.66667,-2.01019 c 0.064,-1.55326 0.37992,-1.8692 0.80555,-0.80556 0.38516,0.9625 0.3378,2.1125 -0.1052,2.55556 -0.44305,0.44306 -0.75819,-0.34445 -0.70029,-1.75 z m 31.89474,-3.88889 c -0.91292,-1.1 -1.35986,-2 -0.99319,-2 0.36667,0 1.4136,0.9 2.32652,2 0.91292,1.1 1.35985,2 0.99319,2 -0.36667,0 -1.4136,-0.9 -2.32652,-2 z m 133.33333,-1.91144 c 0,-0.68463 -1.65,-1.49472 -3.66667,-1.80023 -3.41275,-0.51698 -3.36657,-0.56928 0.66667,-0.75522 3.05174,-0.1407 4.33333,0.39172 4.33333,1.80022 0,1.1 -0.3,2 -0.66667,2 -0.36666,0 -0.66666,-0.56014 -0.66666,-1.24477 z m -134.62612,-2.25864 c -0.0593,-2.20024 3.59477,-4.85916 5.58129,-4.06124 1.10224,0.44273 0.90447,0.72493 -0.55558,0.79272 -1.2469,0.0579 -2.87866,1.15527 -3.62612,2.4386 -0.74748,1.28333 -1.3773,1.6568 -1.39959,0.82992 z m 81.04278,-0.0741 c 0.9625,-0.38516 2.11251,-0.3378 2.55556,0.1052 0.44306,0.44305 -0.34445,0.75818 -1.75,0.70029 -1.55326,-0.064 -1.8692,-0.37992 -0.80556,-0.80555 z m -90.37582,-2.42246 c 0,-0.73333 0.58161,-2.23333 1.29249,-3.33333 0.71088,-1.1 1.2925,-1.4 1.2925,-0.66667 0,0.73334 -0.58162,2.23334 -1.2925,3.33334 -0.71088,1.1 -1.29249,1.4 -1.29249,0.66666 z m 20.62583,-0.66666 c -1.75832,-0.75558 -1.98542,-1.17087 -0.66667,-1.2192 1.1,-0.0403 2.9,0.50832 4,1.2192 2.43729,1.57509 0.33212,1.57509 -3.33333,0 z m -79.12282,-10.6667 c 0,-1.83333 0.30264,-2.58333 0.67252,-1.66666 0.36988,0.91666 0.36988,2.41666 0,3.33333 -0.36988,0.91667 -0.67252,0.16667 -0.67252,-1.66667 z m 73.45615,1.74756 c 1.28333,-0.33536 3.38333,-0.33536 4.66667,0 1.28333,0.33538 0.23333,0.60978 -2.33334,0.60978 -2.56666,0 -3.61666,-0.2744 -2.33333,-0.60978 z m -157.5614,-3.85866 c 0.064,-1.55327 0.37992,-1.8692 0.80555,-0.80556 0.38516,0.96249 0.3378,2.11249 -0.1052,2.55556 -0.44305,0.44305 -0.75819,-0.34446 -0.70029,-1.75 z m 33.33334,0 c 0.064,-1.55327 0.37992,-1.8692 0.80554,-0.80556 0.38516,0.96249 0.3378,2.11249 -0.1052,2.55556 -0.44305,0.44305 -0.75818,-0.34446 -0.70029,-1.75 z m 70.09881,-0.22223 c -0.34099,-0.55 2.4736,-0.82857 6.25464,-0.61904 12.26045,0.67943 13.75252,1.21508 3.9533,1.41927 -5.27338,0.10986 -9.86697,-0.25023 -10.20794,-0.80023 z m 21.56192,-3.89891 c 0.56897,-2.79061 0.90425,-3.12589 1.29281,-1.2928 0.28853,1.36123 -0.0572,3.05672 -0.7682,3.76776 -0.83485,0.83486 -1.02068,-0.0419 -0.52461,-2.47496 z m 38.56733,-6.70873 c 1.65,-0.31781 4.35,-0.31781 6,0 1.65,0.3178 0.3,0.57783 -3,0.57783 -3.3,0 -4.65,-0.26003 -3,-0.57783 z m -12.58157,-2.99267 c -2.33654,-1.42468 -4.93983,-3.97244 -5.78511,-5.66168 -1.31313,-2.62424 -1.08291,-2.54178 1.58157,0.56648 1.71515,2.0008 5.21844,4.52732 7.78511,5.61448 2.56667,1.08716 3.76667,1.9979 2.66667,2.02386 -1.1,0.026 -3.91171,-1.11844 -6.24824,-2.54314 z m 26.50561,1.69584 c 2.54749,-0.67162 5.71172,-8.84892 4.57269,-11.81718 -0.41051,-1.06976 -0.1652,-1.94502 0.54511,-1.94502 1.88176,0 1.58024,4.72792 -0.64047,10.04283 -1.25021,2.99219 -2.77936,4.56927 -4.33333,4.46917 -2.12896,-0.13712 -2.14529,-0.22218 -0.144,-0.7498 z m -12.59071,-3.97857 c 0.91667,-0.36988 2.41667,-0.36988 3.33334,0 0.91666,0.36988 0.16666,0.67252 -1.66667,0.67252 -1.83333,0 -2.58333,-0.30264 -1.66667,-0.67252 z m -7.26762,-3.45029 c -3.27751,-3.5984 -5.74327,-8.17228 -5.7031,-10.57902 0.0161,-0.96488 1.15118,0.71618 2.52239,3.73568 1.3712,3.0195 3.89153,6.4695 5.60072,7.66667 1.7092,1.19716 2.47872,2.17667 1.71004,2.17667 -0.76868,0 -2.6272,-1.35 -4.13005,-3 z m 16.3644,-1.12591 c 2.14677,-2.63592 4.17245,-4.56669 4.50151,-4.2906 0.32906,0.27608 -1.4274,2.43275 -3.90322,4.79257 l -4.50152,4.2906 z m -158.43011,-0.75713 c 0.91667,-0.36988 2.41667,-0.36988 3.33334,0 0.91666,0.36988 0.16666,0.67252 -1.66667,0.67252 -1.83333,0 -2.58333,-0.30264 -1.66667,-0.67252 z m 126.06621,-12.4503 c 0,-4.03333 0.24996,-5.68333 0.55546,-3.66666 0.3055,2.01666 0.3055,5.31666 0,7.33333 -0.3055,2.01667 -0.55546,0.36667 -0.55546,-3.66667 z m 10.35164,-5.17596 c -0.12653,-2.75932 4.97471,-10.43354 7.60688,-11.44361 1.51836,-0.58265 1.08055,0.39529 -1.28386,2.86771 -1.97338,2.06352 -4.18434,5.25186 -4.91323,7.0852 -0.72891,1.83333 -1.36331,2.50416 -1.40979,1.4907 z M 602.67164,268.63 c -0.012,-3.2025 8.42024,-12.53878 11.32834,-12.54341 0.73334,-10e-4 -0.38713,1.28025 -2.48993,2.84759 -2.1028,1.56734 -4.95056,4.69833 -6.32835,6.95776 -1.3778,2.25942 -2.50733,3.49156 -2.51006,2.73806 z m 32.67166,-3.27736 c -1.13217,-2.18938 -3.39757,-4.26601 -5.03424,-4.61476 -1.63665,-0.34873 -4.17574,-0.88782 -5.64241,-1.19797 -1.54964,-0.32771 -0.82611,-0.62871 1.72727,-0.71859 4.28357,-0.15078 10.93939,4.52618 10.93939,7.68696 0,0.7129 1.05,1.57058 2.33334,1.90594 2.17141,0.56745 2.17378,0.6205 0.0343,0.76444 -1.29949,0.0875 -3.19407,-1.57607 -4.35758,-3.82602 z m -111.34332,2.14394 c 0,-0.27687 1.05,-1.32687 2.33334,-2.33334 2.11474,-1.65849 2.1619,-1.61133 0.50341,0.50342 -1.74183,2.221 -2.83675,2.9273 -2.83675,1.82992 z m 117.54385,-6.16326 c 0,-1.83333 0.30264,-2.58333 0.67252,-1.66666 0.36988,0.91666 0.36988,2.41666 0,3.33333 -0.36988,0.91667 -0.67252,0.16667 -0.67252,-1.66667 z m -11.87718,-7.58577 c 1.28333,-0.33536 3.38333,-0.33536 4.66667,0 1.28333,0.33537 0.23333,0.60977 -2.33334,0.60977 -2.56666,0 -3.61666,-0.2744 -2.33333,-0.60977 z"
       style="fill:#cbcbcb;stroke-width:1.33333325" />
    <path
       inkscape:connector-curvature="0"
       id="path147"
       d="m 640.55342,337.33332 c 0,-13.56667 0.198,-19.11666 0.43999,-12.33333 0.24198,6.78333 0.24198,17.88333 0,24.66666 -0.24199,6.78334 -0.43999,1.23334 -0.43999,-12.33333 z m 7.90364,14 c 0.005,-5.86667 0.23925,-8.10081 0.52092,-4.96476 0.28165,3.13605 0.27769,7.93605 -0.009,10.66667 -0.2865,2.73061 -0.51695,0.16476 -0.51211,-5.70191 z m -45.53048,4 c 0.0272,-2.2 0.326,-2.93859 0.66406,-1.64129 0.33805,1.29729 0.31582,3.09729 -0.0495,4 -0.36524,0.9027 -0.64183,-0.15871 -0.61465,-2.35871 z M 390.33332,335.11695 c 0.91667,-0.36988 2.41667,-0.36988 3.33334,0 0.91666,0.36988 0.16666,0.67252 -1.66667,0.67252 -1.83333,0 -2.58333,-0.30264 -1.66667,-0.67252 z m -9,-7.78363 c 1.72234,-1.83333 3.43151,-3.33333 3.79818,-3.33333 0.36666,0 -0.74251,1.5 -2.46484,3.33333 -1.72234,1.83333 -3.43151,3.33333 -3.79818,3.33333 -0.36666,0 0.74251,-1.5 2.46484,-3.33333 z m 66.9266,-1.33333 c 0.0272,-2.2 0.326,-2.93859 0.66405,-1.6413 0.33806,1.2973 0.31583,3.0973 -0.0495,4 -0.36524,0.90271 -0.64183,-0.1587 -0.61466,-2.3587 z m 200.16682,-4.66667 c 0,-4.76666 0.242,-6.71666 0.53777,-4.33333 0.29576,2.38333 0.29576,6.28333 0,8.66666 -0.29577,2.38334 -0.53777,0.43334 -0.53777,-4.33333 z m -217.7621,2.16472 c 1.83223,-1.07059 3.58223,-1.69561 3.88889,-1.38895 0.82784,0.82784 -0.17352,1.45839 -3.88688,2.44755 l -3.33333,0.88792 z m 124.33825,-4.16472 c -0.0148,-2.93333 0.24615,-4.29033 0.57987,-3.01554 0.33372,1.27478 0.34582,3.67478 0.0269,5.33333 -0.31892,1.65854 -0.59197,0.61554 -0.60677,-2.31779 z m 75.87428,2 c 0,-1.83333 0.30264,-2.58333 0.67252,-1.66666 0.36988,0.91666 0.36988,2.41666 0,3.33333 -0.36988,0.91666 -0.67252,0.16666 -0.67252,-1.66667 z m -86.66667,-2.66666 c 0,-1.83334 0.30264,-2.58334 0.67252,-1.66667 0.36988,0.91667 0.36988,2.41667 0,3.33333 -0.36988,0.91667 -0.67252,0.16667 -0.67252,-1.66666 z m -105.79385,-8.91082 c 0.9625,-0.38516 2.11251,-0.3378 2.55556,0.1052 0.44306,0.44306 -0.34445,0.75819 -1.75,0.7003 -1.55326,-0.064 -1.8692,-0.37992 -0.80556,-0.80555 z m 116.46052,-1.75585 c 0,-1.83333 0.30264,-2.58333 0.67252,-1.66667 0.36988,0.91667 0.36988,2.41667 0,3.33334 -0.36988,0.91666 -0.67252,0.16666 -0.67252,-1.66667 z M 432.97461,303.1254 c 0.90271,-0.36522 2.70271,-0.38745 4,-0.0495 1.2973,0.33805 0.55871,0.63688 -1.64129,0.66405 -2.2,0.0272 -3.26141,-0.24941 -2.35871,-0.61465 z M 683.1847,280.66666 c 0.003,-9.53334 0.21471,-13.25839 0.47195,-8.27788 0.25724,4.98049 0.25532,12.78049 -0.004,17.33333 -0.25958,4.55283 -0.47004,0.47788 -0.46771,-9.05545 z m 7.93903,6.66666 c 0.005,-5.86666 0.23925,-8.10081 0.52092,-4.96476 0.28165,3.13606 0.27769,7.93606 -0.009,10.66667 -0.28649,2.73061 -0.51694,0.16476 -0.5121,-5.70191 z m 29.3943,-6.66666 c 0.003,-9.53334 0.21471,-13.25839 0.47195,-8.27788 0.25724,4.98049 0.25532,12.78049 -0.004,17.33333 -0.25957,4.55283 -0.47004,0.47788 -0.46771,-9.05545 z m 7.93903,6.66666 c 0.005,-5.86666 0.23925,-8.10081 0.52092,-4.96476 0.28165,3.13606 0.27769,7.93606 -0.009,10.66667 -0.2865,2.73061 -0.51695,0.16476 -0.51211,-5.70191 z m -120.45708,6.66667 c -0.91292,-1.1 -1.35985,-2 -0.99318,-2 0.36666,0 1.4136,0.9 2.32652,2 0.91292,1.1 1.35985,2 0.99318,2 -0.36666,0 -1.4136,-0.9 -2.32652,-2 z m -126.91666,-4.24415 c 0.96249,-0.38516 2.11251,-0.3378 2.55556,0.1052 0.44305,0.44306 -0.34445,0.75819 -1.75,0.7003 -1.55327,-0.064 -1.8692,-0.37992 -0.80556,-0.80555 z m -89.18425,-6.75585 -3.23241,-3.66667 3.66666,3.23242 c 2.01667,1.77784 3.66667,3.42784 3.66667,3.66666 0,1.04571 -1.07973,0.19464 -4.10092,-3.23241 z m 29.43425,-18.33333 c -0.91292,-1.1 -1.35985,-2 -0.99319,-2 0.36667,0 1.4136,0.9 2.32652,2 0.91292,1.1 1.35986,2 0.99319,2 -0.36667,0 -1.4136,-0.9 -2.32652,-2 z M 374.30795,247.1254 c 0.90271,-0.36522 2.70271,-0.38745 4,-0.0495 1.29729,0.33805 0.55871,0.63688 -1.64129,0.66405 -2.2,0.0272 -3.26142,-0.24941 -2.35871,-0.61465 z"
       style="fill:#b4b4b4;stroke-width:1.33333325" />
    <path
       inkscape:connector-curvature="0"
       id="path149"
       d="m 422.31109,363.83453 c 0.90446,-0.91122 1.98032,-1.32089 2.39084,-0.91037 0.41052,0.41052 -0.32948,1.15607 -1.64444,1.65677 -1.90026,0.72358 -2.05341,0.57043 -0.7464,-0.7464 z m -3.53917,-3.27898 c 0.064,-1.55327 0.37992,-1.8692 0.80555,-0.80556 0.38516,0.96249 0.3378,2.1125 -0.1052,2.55556 -0.44306,0.44305 -0.75819,-0.34446 -0.7003,-1.75 z m 7.89473,1.60769 c 0,-0.27687 1.05,-1.32687 2.33334,-2.33333 2.11474,-1.6585 2.1619,-1.61134 0.50341,0.50341 -1.74183,2.221 -2.83675,2.92731 -2.83675,1.82992 z m 253.33333,-4.16325 c -0.91292,-1.1 -1.35985,-2 -0.99319,-2 0.36667,0 1.4136,0.9 2.32652,2 0.91292,1.1 1.35986,2 0.99319,2 -0.36667,0 -1.4136,-0.9 -2.32652,-2 z m -10.22915,-8 c -0.005,-5.13334 0.23024,-7.39672 0.52479,-5.02974 0.29455,2.36698 0.29939,6.56698 0.0107,9.33334 -0.28864,2.76634 -0.52963,0.82973 -0.53555,-4.3036 z m -249.66558,3.88889 c 0.064,-1.55327 0.37992,-1.8692 0.80555,-0.80556 0.38516,0.96249 0.3378,2.11251 -0.1052,2.55556 -0.44305,0.44305 -0.75819,-0.34445 -0.70029,-1.75 z m 107.89473,-3.88889 c -0.91292,-1.1 -1.35985,-2 -0.99318,-2 0.36666,0 1.4136,0.9 2.32652,2 0.91292,1.1 1.35985,2 0.99318,2 -0.36666,0 -1.4136,-0.9 -2.32652,-2 z m 181.59327,-5.33334 c 0.0272,-2.2 0.326,-2.93858 0.66405,-1.64129 0.33805,1.29729 0.31583,3.09729 -0.0495,4 -0.36524,0.90271 -0.64182,-0.15871 -0.61465,-2.35871 z m -265.55242,-2.66666 c 0,-0.73334 0.58161,-2.23334 1.29249,-3.33334 0.71088,-1.1 1.29249,-1.4 1.29249,-0.66666 0,0.73333 -0.58161,2.23333 -1.29249,3.33333 -0.71088,1.1 -1.29249,1.4 -1.29249,0.66667 z m -59.06621,-8.20792 c 0.9027,-0.36523 2.7027,-0.38746 4,-0.0495 1.29729,0.33805 0.5587,0.63688 -1.6413,0.66405 -2.2,0.0272 -3.26141,-0.24941 -2.3587,-0.61465 z m 12.02537,-0.008 c 0.91667,-0.36988 2.41667,-0.36988 3.33333,0 0.91667,0.36988 0.16667,0.67252 -1.66666,0.67252 -1.83334,0 -2.58334,-0.30264 -1.66667,-0.67252 z m 32.33333,0.37962 c 0,-0.27686 1.05,-1.32686 2.33333,-2.33333 2.11475,-1.65849 2.16191,-1.61133 0.50342,0.50341 -1.74183,2.22055 -2.83675,2.92686 -2.83675,1.82947 z m 17.54385,-2.1637 c 0,-1.83334 0.30264,-2.58334 0.67252,-1.66667 0.36988,0.91667 0.36988,2.41667 0,3.33333 -0.36988,0.91667 -0.67252,0.16667 -0.67252,-1.66666 z m -38.87718,0 c 1.1,-0.71088 2.9,-1.25952 4,-1.2192 1.31874,0.0483 1.09165,0.46362 -0.66667,1.2192 -3.66545,1.57509 -5.77063,1.57509 -3.33333,0 z m 26.66666,-2.52402 c 0,-0.65488 0.98487,-1.56861 2.18859,-2.03052 1.82997,-0.70222 1.91245,-0.50712 0.50341,1.19068 -1.92017,2.31366 -2.692,2.55446 -2.692,0.83984 z M 399.64443,314.5012 c 0.90445,-0.91122 1.98032,-1.32089 2.39084,-0.91037 0.41052,0.41052 -0.32948,1.15607 -1.64444,1.65677 -1.90027,0.72358 -2.05341,0.57043 -0.7464,-0.7464 z m 155.12749,-1.94565 c 0.064,-1.55327 0.37992,-1.8692 0.80554,-0.80556 0.38516,0.96249 0.3378,2.11249 -0.1052,2.55556 -0.44305,0.44305 -0.75818,-0.34445 -0.70029,-1.75 z m -113.4386,-0.55556 c -1.20172,-0.77661 -1.36617,-1.30065 -0.41203,-1.31292 0.87339,-0.0107 1.9588,0.57959 2.41203,1.31292 1.02307,1.65537 0.56149,1.65537 -2,0 z m 88.33624,-4.66667 c -0.0148,-2.93333 0.24614,-4.29033 0.57986,-3.01554 0.33372,1.27478 0.34583,3.67478 0.0269,5.33333 -0.31892,1.65855 -0.59198,0.61555 -0.60678,-2.31779 z m -95.25291,2.42252 c 0.9625,-0.38516 2.11251,-0.3378 2.55556,0.1052 0.44306,0.44306 -0.34445,0.75819 -1.75,0.7003 -1.55326,-0.064 -1.8692,-0.37992 -0.80556,-0.80555 z m 6.59888,-6.69886 c 1.65855,-0.31892 4.05855,-0.30682 5.33334,0.0269 1.27478,0.33372 -0.0823,0.59467 -3.01555,0.57987 -2.93333,-0.0148 -3.97633,-0.28786 -2.31779,-0.60678 z m 126.73445,0.0321 c 0.9625,-0.38516 2.11251,-0.3378 2.55556,0.1052 0.44306,0.44305 -0.34445,0.75819 -1.75,0.70029 -1.55326,-0.064 -1.8692,-0.37992 -0.80556,-0.80554 z m -146.41666,-3.08912 c -1.1,-0.71088 -1.4,-1.29249 -0.66667,-1.29249 0.73334,0 2.23334,0.58161 3.33334,1.29249 1.1,0.71088 1.4,1.29249 0.66666,1.29249 -0.73333,0 -2.23333,-0.58161 -3.33333,-1.29249 z m 291.12374,-12.66667 c 0.005,-5.86666 0.23925,-8.10081 0.52092,-4.96476 0.28165,3.13606 0.27769,7.93606 -0.009,10.66667 -0.2865,2.73061 -0.51695,0.16476 -0.51211,-5.70191 z m 37.33333,0 c 0.005,-5.86666 0.23926,-8.10081 0.52092,-4.96476 0.28166,3.13606 0.2777,7.93606 -0.009,10.66667 -0.28649,2.73061 -0.51695,0.16476 -0.51211,-5.70191 z m -349.11429,2.01527 c -0.46712,-0.75581 0.0681,-0.97933 1.25464,-0.52401 2.30989,0.88638 2.73252,1.84208 0.81461,1.84208 -0.69005,0 -1.62123,-0.59314 -2.06925,-1.31807 z m 36.65722,-6.68193 c -0.78493,-1.46667 -1.12716,-2.66667 -0.76049,-2.66667 0.36666,0 1.30889,1.2 2.09382,2.66667 0.78494,1.46666 1.12716,2.66666 0.7605,2.66666 -0.36667,0 -1.3089,-1.2 -2.09383,-2.66666 z m 133.33333,0.80932 c 0,-0.28822 0.93116,-0.88134 2.06925,-1.31807 1.18656,-0.45532 1.72176,-0.2318 1.25464,0.52401 -0.78301,1.26695 -3.32389,1.87394 -3.32389,0.79406 z m 40.10527,-6.92043 c 0.064,-1.55327 0.37992,-1.8692 0.80554,-0.80556 0.38516,0.96249 0.3378,2.11249 -0.1052,2.55556 -0.44305,0.44305 -0.75818,-0.34445 -0.70029,-1.75 z m -182.168,-4.88889 -5.2706,-5.66667 5.66667,5.2706 c 3.11666,2.89883 5.66666,5.44883 5.66666,5.66667 0,1.00877 -1.16113,-6.6e-4 -6.06273,-5.2706 z m -44.60393,2.33333 c -0.91292,-1.1 -1.35985,-2 -0.99319,-2 0.36667,0 1.4136,0.9 2.32652,2 0.91292,1.1 1.35986,2 0.99319,2 -0.36667,0 -1.4136,-0.9 -2.32652,-2 z m 32.58817,-12.07356 c -2.48536,-1.99119 -2.46901,-2.0158 0.41183,-0.61975 1.65,0.79959 3,1.73268 3,2.07355 0,1.02029 -0.69148,0.72565 -3.41183,-1.4538 z m -42.643,-2.01515 c -0.48337,-0.78212 -0.5929,-1.708 -0.2434,-2.0575 0.3495,-0.34951 0.99075,0.29041 1.425,1.42204 0.90158,2.34948 0.1332,2.76274 -1.1816,0.63546 z m 34.73093,-2.56269 c -0.46712,-0.75581 0.0681,-0.97933 1.25464,-0.52401 2.3099,0.88638 2.73252,1.84208 0.81462,1.84208 -0.69006,0 -1.62123,-0.59314 -2.06926,-1.31807 z m -26.34277,-8.89831 c 0.91667,-0.36988 2.41667,-0.36988 3.33334,0 0.91666,0.36988 0.16666,0.67252 -1.66667,0.67252 -1.83333,0 -2.58333,-0.30264 -1.66667,-0.67252 z"
       style="fill:#9a9a9a;stroke-width:1.33333325" />
    <path
       inkscape:connector-curvature="0"
       id="path151"
       d="m 419.47067,364.22221 c -0.3777,-0.61112 0.1605,-1.11112 1.19598,-1.11112 1.03548,0 1.57368,0.5 1.19599,1.11112 -0.37768,0.61111 -0.91588,1.11111 -1.19599,1.11111 -0.2801,0 -0.8183,-0.5 -1.19598,-1.11111 z m 352.73983,-5.55556 c 0,-1.83333 0.30264,-2.58333 0.67252,-1.66666 0.36988,0.91666 0.36988,2.41666 0,3.33333 -0.36988,0.91667 -0.67252,0.16667 -0.67252,-1.66667 z m -337.54754,-4.7247 c 2.56463,-2.90142 5.18807,-5.8753 5.82987,-6.60863 1.78798,-2.04299 -1.54656,3.72225 -3.47032,6 -0.92906,1.1 -2.88919,2.87388 -4.35586,3.94196 -1.46666,1.06807 -0.56833,-0.43193 1.99631,-3.33333 z m -13.21551,-3.2753 c -0.0403,-1.1 0.50832,-2.9 1.2192,-4 1.5751,-2.43729 1.5751,-0.33212 0,3.33334 -0.75557,1.75832 -1.17086,1.98541 -1.2192,0.66666 z m 343.13173,-8.65253 c 0.0743,-7.90932 0.44442,-9.35123 2.44693,-9.53095 1.54163,-0.13834 1.6768,0.003 0.39,0.40606 -1.41103,0.44262 -2.10487,3.14514 -2.44693,9.53094 l -0.47747,8.91315 z m -333.91253,-8.01413 c 1.72234,-1.83334 3.43151,-3.33334 3.79818,-3.33334 0.36666,0 -0.74251,1.5 -2.46484,3.33334 -1.72234,1.83333 -3.43151,3.33333 -3.79818,3.33333 -0.36666,0 0.74251,-1.5 2.46484,-3.33333 z m -51.99999,-1.88668 c 0,-1.45614 11.53801,-11.79516 15.33333,-13.73996 3.19297,-1.63613 2.1832,-0.65009 -7.00129,6.83666 -3.85071,3.13891 -6.6653,6.25076 -6.25464,6.91522 0.41065,0.66445 0.11124,1.20809 -0.66538,1.20809 -0.77661,0 -1.41202,-0.54901 -1.41202,-1.22001 z m 25.08333,0.3092 c 0.96249,-0.38516 2.1125,-0.3378 2.55556,0.1052 0.44305,0.44305 -0.34446,0.75818 -1.75,0.70029 -1.55327,-0.064 -1.8692,-0.37992 -0.80556,-0.80555 z m 81.33333,0 c 0.96249,-0.38516 2.11251,-0.3378 2.55556,0.1052 0.44305,0.44305 -0.34445,0.75818 -1.75,0.70029 -1.55327,-0.064 -1.8692,-0.37992 -0.80556,-0.80555 z m 8,0 c 0.96249,-0.38516 2.11251,-0.3378 2.55556,0.1052 0.44305,0.44305 -0.34445,0.75818 -1.75,0.70029 -1.55327,-0.064 -1.8692,-0.37992 -0.80556,-0.80555 z m 278.55827,-1.86274 c 0.47148,-1.80293 1.07587,-2.40733 1.40873,-1.40873 0.32064,0.96192 -0.0509,2.38288 -0.82574,3.15768 -0.98943,0.98943 -1.16295,0.46885 -0.58299,-1.74895 z m -7.30537,-7.22645 c -0.0148,-2.93333 0.24614,-4.29033 0.57986,-3.01554 0.33372,1.27478 0.34583,3.67478 0.0269,5.33333 -0.31892,1.65854 -0.59198,0.61554 -0.60678,-2.31779 z m -320.33623,0.66667 c 1.1,-0.71088 2.6,-1.2925 3.33333,-1.2925 0.73333,0 0.43333,0.58162 -0.66667,1.2925 -1.1,0.71088 -2.6,1.29249 -3.33333,1.29249 -0.73333,0 -0.43333,-0.58161 0.66667,-1.29249 z m -10.66667,-3.21192 c 0,-0.25385 0.9,-1.20849 2,-2.12141 1.15279,-0.95674 2,-1.08632 2,-0.30591 0,0.74467 -0.9,1.69929 -2,2.12141 -1.1,0.42211 -2,0.55976 -2,0.30591 z m 6.18449,-5.45475 c 0.42212,-1.1 1.37675,-2 2.12142,-2 0.78041,0 0.65082,0.84722 -0.30591,2 -0.91292,1.1 -1.86756,2 -2.12141,2 -0.25386,0 -0.11614,-0.9 0.3059,-2 z m -21.18449,-5.60764 c 1.65,-0.31781 4.35,-0.31781 6,0 1.65,0.3178 0.3,0.57783 -3,0.57783 -3.3,0 -4.65,-0.26003 -3,-0.57783 z m 10.66667,0.0579 c 0.91666,-0.36988 2.41666,-0.36988 3.33333,0 0.91667,0.36988 0.16667,0.67252 -1.66667,0.67252 -1.83333,0 -2.58333,-0.30264 -1.66666,-0.67252 z m 96.66957,-5.11689 c -0.0148,-2.93334 0.24614,-4.29034 0.57986,-3.01555 0.33372,1.27479 0.34583,3.67479 0.0269,5.33333 -0.31892,1.65855 -0.59198,0.61555 -0.60678,-2.31778 z m -99.25291,-4.24415 c 0.9625,-0.38516 2.11251,-0.3378 2.55556,0.1052 0.44306,0.44305 -0.34445,0.75819 -1.75,0.70029 -1.55326,-0.064 -1.8692,-0.37992 -0.80556,-0.80554 z m 5.67158,-23.44656 c -3.79728,-4.67991 -3.94702,-5.07391 -0.87758,-2.30929 3.18979,2.87301 6.97651,8.04804 5.83624,7.97596 -0.20913,-0.0133 -2.44053,-2.56322 -4.95866,-5.66667 z m -43.54825,1.35737 -2.53999,-3 3,2.53999 c 2.81925,2.38696 3.60699,3.46001 2.53999,3.46001 -0.25302,0 -1.60302,-1.35 -3,-3 z m -5.33334,-6.66666 -2.53998,-3 3,2.53998 c 1.65,1.39699 3,2.74699 3,3 0,1.067 -1.07306,0.27927 -3.46002,-2.53998 z m 158.12668,-4.33334 c -0.91292,-1.1 -1.35986,-2 -0.99319,-2 0.36667,0 1.4136,0.9 2.32652,2 0.91292,1.1 1.35985,2 0.99319,2 -0.36667,0 -1.4136,-0.9 -2.32652,-2 z m -120,-1.33333 c -0.91292,-1.1 -1.35985,-2 -0.99319,-2 0.36667,0 1.4136,0.9 2.32652,2 0.91292,1.1 1.35986,2 0.99319,2 -0.36667,0 -1.4136,-0.9 -2.32652,-2 z m -9.33333,-6 c -1.20172,-0.77661 -1.36618,-1.30065 -0.41203,-1.31292 0.87339,-0.0107 1.9588,0.57959 2.41203,1.31292 1.02306,1.65537 0.56149,1.65537 -2,0 z m -39.38816,-4.08871 c -0.48337,-0.78212 -0.59291,-1.708 -0.2434,-2.0575 0.34949,-0.34951 0.99075,0.29041 1.425,1.42204 0.90157,2.34948 0.1332,2.76274 -1.1816,0.63546 z"
       style="fill:#868686;stroke-width:1.33333325" />
    <path
       inkscape:connector-curvature="0"
       id="path153"
       d="m 614.34886,361.72364 c 1.65855,-0.31892 4.05855,-0.30681 5.33334,0.0269 1.27478,0.33372 -0.0823,0.59467 -3.01555,0.57987 -2.93333,-0.0148 -3.97633,-0.28785 -2.31779,-0.60677 z m 27.95908,0.0684 c 0.90271,-0.36523 2.70271,-0.38745 4,-0.0495 1.29729,0.33806 0.55871,0.63688 -1.64129,0.66406 -2.2,0.0272 -3.26142,-0.24942 -2.35871,-0.61466 z m 24.10871,-0.0363 c 0.96249,-0.38516 2.1125,-0.3378 2.55556,0.1052 0.44305,0.44306 -0.34446,0.75819 -1.75,0.7003 -1.55327,-0.064 -1.8692,-0.37992 -0.80556,-0.80555 z m 23.93221,-0.0323 c 1.65855,-0.31892 4.05855,-0.30682 5.33333,0.0269 1.27479,0.33372 -0.0823,0.59467 -3.01554,0.57987 -2.93334,-0.0148 -3.97634,-0.28786 -2.31779,-0.60678 z m 38.65112,0.06 c 0.91667,-0.36988 2.41667,-0.36988 3.33333,0 0.91667,0.36988 0.16667,0.67252 -1.66666,0.67252 -1.83334,0 -2.58334,-0.30264 -1.66667,-0.67252 z m 10.45237,-0.25768 c -0.38776,-0.6274 0.77684,-0.85746 2.58798,-0.51124 1.81114,0.34622 3.29298,0.85954 3.29298,1.14073 0,1.03167 -5.19818,0.47525 -5.88096,-0.62949 z M 632.10525,349.8887 c 0.064,-1.55326 0.37992,-1.8692 0.80555,-0.80556 0.38516,0.9625 0.3378,2.11251 -0.1052,2.55556 -0.44306,0.44306 -0.75819,-0.34445 -0.7003,-1.75 z m 107.00968,-11.22212 c 0,-5.5 0.23534,-7.75 0.52301,-5 0.28765,2.75 0.28765,7.25 0,10 -0.28767,2.75 -0.52301,0.5 -0.52301,-5 z m -251.36494,-2.24414 c 0.96249,-0.38516 2.1125,-0.3378 2.55556,0.1052 0.44305,0.44305 -0.34446,0.75818 -1.75,0.70029 -1.55327,-0.064 -1.8692,-0.37992 -0.80556,-0.80555 z m -6.66667,-4 c 0.96249,-0.38516 2.11251,-0.3378 2.55556,0.1052 0.44305,0.44305 -0.34445,0.75818 -1.75,0.70029 -1.55327,-0.064 -1.8692,-0.37992 -0.80556,-0.80555 z m -13.08333,-2.42252 c -0.91292,-1.1 -1.35986,-2 -0.99319,-2 0.36667,0 1.4136,0.9 2.32652,2 0.91292,1.1 1.35985,2 0.99319,2 -0.36667,0 -1.4136,-0.9 -2.32652,-2 z m 150.33333,-8.21638 c 0.91666,-0.36988 2.41666,-0.36988 3.33333,0 0.91667,0.36988 0.16667,0.67252 -1.66667,0.67252 -1.83333,0 -2.58333,-0.30264 -1.66666,-0.67252 z m -92.89474,-23.89473 c 0.064,-1.55326 0.37992,-1.8692 0.80555,-0.80556 0.38516,0.9625 0.3378,2.1125 -0.1052,2.55556 -0.44305,0.44306 -0.75819,-0.34445 -0.70029,-1.75 z m 131.64473,-0.13306 c 0.9625,-0.38516 2.11251,-0.3378 2.55556,0.1052 0.44306,0.44305 -0.34445,0.75818 -1.75,0.70029 -1.55326,-0.064 -1.8692,-0.37992 -0.80556,-0.80555 z m 12,0 c 0.9625,-0.38516 2.11251,-0.3378 2.55556,0.1052 0.44306,0.44305 -0.34445,0.75818 -1.75,0.70029 -1.55326,-0.064 -1.8692,-0.37992 -0.80556,-0.80555 z m 15.8913,0.0363 c 0.9027,-0.36522 2.7027,-0.38745 4,-0.0495 1.29729,0.33805 0.5587,0.63688 -1.6413,0.66405 -2.2,0.0272 -3.26141,-0.24941 -2.3587,-0.61465 z m 24.1087,-0.0363 c 0.9625,-0.38516 2.11251,-0.3378 2.55556,0.1052 0.44306,0.44305 -0.34445,0.75818 -1.75,0.70029 -1.55326,-0.064 -1.8692,-0.37992 -0.80556,-0.80555 z m 13.22463,0.0363 c 0.90271,-0.36522 2.70271,-0.38745 4,-0.0495 1.29729,0.33805 0.55871,0.63688 -1.64129,0.66405 -2.2,0.0272 -3.26142,-0.24941 -2.35871,-0.61465 z m 21.33333,0 c 0.90271,-0.36522 2.70271,-0.38745 4,-0.0495 1.2973,0.33805 0.55871,0.63688 -1.64129,0.66405 -2.2,0.0272 -3.26141,-0.24941 -2.35871,-0.61465 z m 25.44204,-0.0363 c 0.96249,-0.38516 2.11251,-0.3378 2.55556,0.1052 0.44305,0.44305 -0.34445,0.75818 -1.75,0.70029 -1.55327,-0.064 -1.8692,-0.37992 -0.80556,-0.80555 z m 10.66667,0 c 0.96249,-0.38516 2.1125,-0.3378 2.55556,0.1052 0.44305,0.44305 -0.34446,0.75818 -1.75,0.70029 -1.55327,-0.064 -1.8692,-0.37992 -0.80556,-0.80555 z m 4.35526,-3.86696 c 0.064,-1.55327 0.37992,-1.8692 0.80555,-0.80556 0.38516,0.96249 0.3378,2.11249 -0.1052,2.55556 -0.44305,0.44305 -0.75819,-0.34446 -0.70029,-1.75 z m -110.32365,-9.88887 c 0,-5.5 0.23535,-7.75 0.52302,-5 0.28765,2.75 0.28765,7.25 0,10 -0.28767,2.75 -0.52302,0.5 -0.52302,-5 z m 110.64515,-1.33333 c 0,-4.76667 0.242,-6.71667 0.53777,-4.33334 0.29576,2.38334 0.29576,6.28334 0,8.66667 -0.29577,2.38333 -0.53777,0.43333 -0.53777,-4.33333 z m -123.34343,-6.24415 c 0.9625,-0.38516 2.11251,-0.3378 2.55556,0.1052 0.44306,0.44305 -0.34445,0.75819 -1.75,0.70029 -1.55326,-0.064 -1.8692,-0.37992 -0.80556,-0.80554 z m 110.66667,0 c 0.96249,-0.38516 2.1125,-0.3378 2.55556,0.1052 0.44305,0.44305 -0.34446,0.75819 -1.75,0.70029 -1.55327,-0.064 -1.8692,-0.37992 -0.80556,-0.80554 z m -121.91761,-5.0452 c -0.41283,-1.07581 -0.4933,-2.72581 -0.1788,-3.66667 0.31449,-0.94085 0.88789,-0.0607 1.27421,1.95602 0.75432,3.93762 0.132,4.90938 -1.09541,1.71065 z m 110.27287,-2.82176 c 0.064,-1.55327 0.37992,-1.8692 0.80555,-0.80556 0.38516,0.96249 0.3378,2.11249 -0.1052,2.55556 -0.44305,0.44305 -0.75819,-0.34445 -0.70029,-1.75 z"
       style="fill:#7c7c7c;stroke-width:1.33333325" />
    <path
       inkscape:connector-curvature="0"
       id="path155"
       d="m 419.99999,361.34895 c 0,-1.32078 1.25237,-6.45611 2.78304,-11.41184 2.25914,-7.31428 4.12521,-10.35263 9.91294,-16.14036 6.47182,-6.4718 13.41979,-10.79211 14.92896,-9.28294 1.40527,1.40528 -3.96288,17.49687 -7.60092,22.78459 -7.37249,10.71555 -20.02402,19.59292 -20.02402,14.05055 z m 65.68077,0.0501 c -1.50875,-1.61944 -3.68785,-6.70524 -4.84247,-11.30179 -1.15461,-4.59654 -2.47977,-9.34884 -2.94478,-10.56066 -0.72915,-1.90014 0.2712,-2.20331 7.27006,-2.20331 8.06614,0 8.13142,0.0311 10.72152,5.10811 1.43328,2.80946 4.70491,6.70906 7.2703,8.66577 4.88738,3.7278 7.25282,8.35123 5.2813,10.32275 -0.63884,0.63884 -5.40306,1.55574 -10.58716,2.03754 -8.61196,0.8004 -9.66241,0.62186 -12.16877,-2.06841 z m 120.65256,-0.98487 c -1.55182,-0.40552 -2.33334,-1.91676 -2.33334,-4.51198 0,-4.54103 -0.11186,-4.49696 4.84759,-1.91046 7.98776,4.1659 17.15877,1.49942 16.27904,-4.73316 -0.34237,-2.42558 -2.49848,-4.34106 -8.43409,-7.49284 -11.90139,-6.31957 -15.18467,-11.95117 -11.25188,-19.29965 2.6878,-5.02221 13.89394,-7.85865 22.22601,-5.62574 2.04708,0.54858 3,1.81337 3,3.98178 0,3.64724 -0.0604,3.66339 -6.51197,1.74183 -7.11091,-2.11793 -12.1547,0.1148 -12.1547,5.38053 0,3.50441 0.8834,4.4526 7,7.51341 10.59184,5.30028 13,8.01922 13,14.6777 0,8.16888 -4.23618,11.25062 -15.17981,11.04302 -4.48444,-0.0851 -9.20352,-0.42906 -10.48685,-0.76444 z m 34.99999,-23.08089 v -24 h 3.33334 c 3.18572,0 3.33333,0.35478 3.33333,8.01165 v 8.01164 l 7.22329,-0.84896 c 6.56782,-0.7719 7.53578,-0.53648 10.66667,2.59442 3.24524,3.24524 3.44337,4.21408 3.44337,16.83732 v 13.39393 h -3.33333 c -3.30328,0 -3.33333,-0.10587 -3.33333,-11.74516 0,-13.59723 -1.43331,-16.71663 -7.36819,-16.03589 -5.41176,0.62073 -7.25523,5.03961 -7.27883,17.44772 -0.0193,10.12809 -0.0859,10.33333 -3.35298,10.33333 h -3.33334 z m 40.943,21.31248 c -10.52185,-8.27648 -6.30418,-27.68561 6.53978,-30.09515 12.25301,-2.29868 19.36757,3.12452 20.25857,15.4425 0.55313,7.6469 0.39289,8.13926 -4.11624,12.6484 -4.22216,4.22216 -5.42115,4.69177 -11.97863,4.69177 -5.28677,0 -8.22464,-0.73767 -10.70348,-2.68752 z m 16.57596,-3.86135 c 2.54598,-2.06161 3.14771,-3.81905 3.14771,-9.19334 0,-7.88734 -3.14521,-12.25779 -8.82137,-12.25779 -8.81504,0 -12.7662,13.86697 -5.9059,20.72727 3.93307,3.93308 7.35238,4.14684 11.57956,0.72386 z m 23.53354,5.10774 c -3.23042,-1.84022 -5.03643,-9.55779 -5.04506,-21.55887 l -0.007,-10.33333 h 4 4 v 12.57142 c 0,13.21246 1.38812,16.76191 6.55526,16.76191 5.09125,0 7.26489,-4.80533 7.86662,-17.39095 0.55106,-11.52573 0.68158,-11.94238 3.74122,-11.94238 3.16681,0 3.17024,0.0178 3.17024,16.45253 v 16.45255 l -11,0.1432 c -6.05,0.0788 -12.02638,-0.44148 -13.28084,-1.15608 z m 37.0231,-1.52222 c -1.49587,-2.13564 -2.0756,-6.2322 -2.0756,-14.66666 0,-10.81443 -0.20253,-11.70332 -2.66667,-11.70332 -1.48148,0 -2.66666,-0.8889 -2.66666,-2 0,-1.11111 1.18518,-2 2.66666,-2 2.07408,0 2.66667,-0.8889 2.66667,-4 0,-2.2 0.55093,-4 1.22428,-4 0.67336,0 2.17336,-0.36419 3.33333,-0.80932 1.68296,-0.64581 2.10906,0.16232 2.10906,4 0,4.4548 0.29486,4.80932 4,4.80932 5.17357,0 5.46058,3.65481 0.33333,4.24477 l -3.66667,0.42189 v 11.33334 11.33333 l 3.66667,0.42189 c 2.59033,0.29806 3.66667,1.1787 3.66667,3 0,3.9574 -9.7585,3.65883 -12.59107,-0.38524 z M 533.7206,353.29929 c -3.72487,-1.48368 -10.60531,-10.88802 -11.73758,-16.04318 -1.28783,-5.86352 -5.09707,-5.25579 -4.4015,0.70221 l 0.53993,4.62501 -4.06073,-2.71317 c -9.06957,-6.05983 -12.98041,-7.0706 -27.90135,-7.21128 -14.48286,-0.13655 -14.51353,-0.14377 -18.21588,-4.28741 -7.94702,-8.89427 -7.91584,-25.9376 0.062,-33.91551 3.37352,-3.37352 4.72498,-3.7893 12.31655,-3.7893 11.51185,0 20.84649,-3.00514 28.7566,-9.25771 l 6.58627,-5.20615 -1.35659,5.56527 c -1.75483,7.199 -3.74328,9.37364 -11.70161,12.79723 -7.89672,3.39709 -9.27339,5.68524 -9.27339,15.41325 0,8.83087 2.88273,15.35477 6.78484,15.35477 1.494,0 5.98036,1.59823 9.96971,3.55161 3.98933,1.95339 7.63562,3.16934 8.10286,2.7021 0.46724,-0.46724 0.17388,-7.01547 -0.65192,-14.55161 -1.42261,-12.98276 -1.3681,-16.00327 0.54795,-30.36876 1.76644,-13.24374 8.27814,-22.66667 15.66377,-22.66667 11.53489,0 20.91612,22.449 20.91612,50.05167 0,26.53822 -9.26585,43.90009 -20.94605,39.24763 z m 8.4608,-16.96597 c 2.07957,-4.18383 2.4751,-8.04703 2.42306,-23.66666 -0.0556,-16.70514 -0.40593,-19.49419 -3.33333,-26.54163 -3.91297,-9.42009 -7.15512,-12.05633 -10.04317,-8.16624 -7.48132,10.07704 -6.5227,48.07772 1.52258,60.35636 2.97312,4.53756 6.56563,3.78261 9.43086,-1.98183 z m -10.62586,-18.55556 c -0.48889,-0.48888 -0.88889,-4.97005 -0.88889,-9.95814 0,-8.05751 0.26031,-8.97878 2.33333,-8.25814 3.76284,1.30808 5.66667,4.60731 5.66667,9.82003 0,5.78196 -4.45972,11.04765 -7.11111,8.39625 z m 35.77778,19.67124 c -6.38612,-2.24567 -9.08031,-5.54528 -6.05464,-7.41524 1.73257,-1.0708 16.07157,1.72835 18.35996,3.58407 2.20738,1.79005 -0.26367,6.41841 -3.35223,6.27882 -1.25753,-0.0568 -5.28643,-1.15828 -8.95309,-2.44765 z M 386.3186,333.33477 c -2.7581,-0.50589 -5.34504,-1.2501 -5.74876,-1.65382 -1.29796,-1.29796 14.52168,-13.3044 22.09682,-16.77056 5.73665,-2.62492 10.15594,-3.48565 20.29715,-3.95325 7.13011,-0.32875 14.5095,-0.20979 16.39863,0.26436 l 3.43481,0.86208 -5.50742,5.29153 c -3.0291,2.91035 -5.74346,5.29154 -6.03192,5.29154 -0.28846,0 -4.29711,1.72791 -8.9081,3.83978 -7.5474,3.45678 -15.38681,5.54117 -27.01649,7.18332 -2.2,0.31064 -6.25662,0.1509 -9.01472,-0.35498 z m 178.12916,-24.75774 c -1.25464,-3.26956 0.87561,-4.36837 10.34698,-5.33707 7.64715,-0.78213 8.91154,-0.59518 9.68967,1.43259 1.61259,4.20232 -1.5828,5.99411 -10.68953,5.99411 -6.52868,0 -8.73448,-0.49312 -9.34712,-2.08963 z m -137.11444,-8.04672 c -13.45539,-3.64383 -26.10428,-11.11556 -35.98054,-21.25376 -8.51015,-8.73587 -20.68612,-26.47205 -20.68612,-30.13255 0,-3.42961 24.37741,2.12442 37.33333,8.50584 14.49037,7.13722 33.9008,28.63292 37.9408,42.01682 0.8558,2.8351 0.55252,2.9909 -5.51762,2.83452 -3.53276,-0.0911 -9.42318,-0.97791 -13.08985,-1.97087 z m 191.70006,-1.82491 c -6.708,-1.59376 -11.03545,-5.09234 -13.7825,-11.14269 -8.82151,-19.42921 7.59465,-36.66028 30.55214,-32.06877 3.42305,0.6846 4.28539,1.62153 5.00041,5.43292 1.20567,6.42676 -1.29856,8.56165 -3.97401,3.3879 -2.39404,-4.62956 -4.46193,-5.6481 -11.46704,-5.6481 -9.83416,0 -16.879,12.78842 -13.41462,24.35146 2.40108,8.01407 7.94148,12.98187 14.4782,12.98187 4.38526,0 6.00353,-0.80381 9.39517,-4.66667 6.32798,-7.20717 8.58409,-6.07534 4.99801,2.50736 -1.62573,3.89092 -2.6084,4.526 -8.18609,5.29051 -7.20843,0.98803 -7.71591,0.97213 -13.59967,-0.42579 z m 30.29993,-4.03874 c -2.66328,-2.66328 -3.40265,-7.19728 -1.83842,-11.2736 1.09866,-2.86306 7.4532,-6.05471 12.10554,-6.08015 5.41767,-0.0296 7.52599,-1.76383 6.41188,-5.27408 -0.79561,-2.50672 -1.68645,-2.87203 -5.80936,-2.38224 -2.67829,0.31817 -5.91964,1.03979 -7.20297,1.6036 -1.81309,0.79655 -2.33333,0.39139 -2.33333,-1.81721 0,-5.601 13.10818,-7.43482 19.15352,-2.67955 3.39401,2.66973 3.51314,3.23489 3.51314,16.66667 v 13.90322 h -10.66666 c -8.8889,0 -11.11111,-0.44444 -13.33334,-2.66666 z m 14.66667,-4 c 1.46667,-1.46667 2.66667,-4.16667 2.66667,-6 0,-2.64962 -0.67086,-3.33334 -3.2706,-3.33334 -5.97447,0 -10.06274,2.75575 -10.06274,6.78292 0,3.49856 1.38156,4.60288 6.33334,5.06242 0.91666,0.0851 2.86666,-1.04534 4.33333,-2.512 z m 20,-9.76771 v -16.43437 l 10.66357,-0.1152 c 15.63868,-0.16894 16.54367,0.82797 17.12446,18.86381 l 0.4547,14.12013 h -3.4547 c -3.4485,0 -3.4547,-0.0205 -3.4547,-11.42098 0,-13.45823 -1.24952,-16.57902 -6.63797,-16.57902 -6.10773,0 -8.02869,4.05868 -8.02869,16.96335 0,10.88355 -0.0462,11.03665 -3.33334,11.03665 h -3.33333 z m 37.33333,0 v -16.43437 l 10.66358,-0.1152 c 15.63868,-0.16894 16.54366,0.82797 17.12445,18.86381 l 0.45471,14.12013 h -3.45471 c -3.44849,0 -3.45469,-0.0205 -3.45469,-11.42098 0,-13.45823 -1.24952,-16.57902 -6.63798,-16.57902 -6.10773,0 -8.02869,4.05868 -8.02869,16.96335 0,10.88355 -0.0462,11.03665 -3.33333,11.03665 h -3.33334 z m 38.66667,13.76771 c -2.66328,-2.66328 -3.40266,-7.19728 -1.83843,-11.2736 1.09867,-2.86306 7.4532,-6.05471 12.10555,-6.08015 5.41766,-0.0296 7.52598,-1.76383 6.41188,-5.27408 -0.79562,-2.50672 -1.68646,-2.87203 -5.80936,-2.38224 -2.6783,0.31817 -5.91964,1.03979 -7.20298,1.6036 -1.81309,0.79655 -2.33333,0.39139 -2.33333,-1.81721 0,-5.601 13.10819,-7.43482 19.15352,-2.67955 3.39401,2.66973 3.51315,3.23489 3.51315,16.66667 v 13.90322 h -10.66667 c -8.88889,0 -11.11111,-0.44444 -13.33333,-2.66666 z m 15.61914,-5.19403 c 2.20082,-2.88959 2.1448,-8.13931 -0.0868,-8.13931 -0.99056,0 -3.69056,0.6587 -6,1.46378 -2.99544,1.04421 -4.19896,2.30534 -4.19896,4.4 0,6.07306 6.32734,7.47286 10.28582,2.27553 z m -217.39691,-5.0282 c -2.18327,-2.18325 -0.34345,-4.21481 6.99215,-7.72092 8.67066,-4.1442 12.55716,-3.83757 11.87914,0.93719 -0.32414,2.28268 -2.03097,3.54168 -7.09352,5.2324 -7.41126,2.4751 -10.45332,2.8758 -11.77777,1.55133 z"
       style="fill:#646464;stroke-width:1.33333325" />
  </g>
</svg>
