<?xml version="1.0" encoding="UTF-8" standalone="no"?>
<!-- Created with Inkscape (http://www.inkscape.org/) -->

<svg
   xmlns:dc="http://purl.org/dc/elements/1.1/"
   xmlns:cc="http://creativecommons.org/ns#"
   xmlns:rdf="http://www.w3.org/1999/02/22-rdf-syntax-ns#"
   xmlns:svg="http://www.w3.org/2000/svg"
   xmlns="http://www.w3.org/2000/svg"
   xmlns:sodipodi="http://sodipodi.sourceforge.net/DTD/sodipodi-0.dtd"
   xmlns:inkscape="http://www.inkscape.org/namespaces/inkscape"
   version="1.1"
   id="svg3699"
   width="18.45702mm"
   height="10.830296mm"
   viewBox="0 0 69.758814 40.933401"
   sodipodi:docname="logo.svg"
   inkscape:version="0.92.2 (5c3e80d, 2017-08-06)">
  <metadata
     id="metadata3705">
    <rdf:RDF>
      <cc:Work
         rdf:about="">
        <dc:format>image/svg+xml</dc:format>
        <dc:type
           rdf:resource="http://purl.org/dc/dcmitype/StillImage" />
        <dc:title></dc:title>
      </cc:Work>
    </rdf:RDF>
  </metadata>
  <defs
     id="defs3703" />
  <sodipodi:namedview
     pagecolor="#ffffff"
     bordercolor="#666666"
     borderopacity="1"
     objecttolerance="10"
     gridtolerance="10"
     guidetolerance="10"
     inkscape:pageopacity="0"
     inkscape:pageshadow="2"
     inkscape:window-width="1600"
     inkscape:window-height="847"
     id="namedview3701"
     showgrid="false"
     units="mm"
     fit-margin-top="0"
     fit-margin-left="0"
     fit-margin-right="0"
     fit-margin-bottom="0"
     inkscape:zoom="4.4140623"
     inkscape:cx="30.480938"
     inkscape:cy="18.318269"
     inkscape:window-x="-8"
     inkscape:window-y="-8"
     inkscape:window-maximized="1"
     inkscape:current-layer="svg3699" />
  <path
     style="fill:#34cc33;stroke-width:0.32000002"
     d="M 1.6681822,40.423674 C 0.60685221,39.680294 -0.00133779,38.263984 2.209615e-6,36.538984 0.00200221,34.631094 0.81780221,33.214784 2.3293922,32.497484 c 1.89038,-0.89704 4.38941,-0.61223 4.38941,0.50026 0,0.52136 -0.13346,0.59558 -0.72,0.40039 -2.97735,-0.99084 -5.33420999,1.33303 -4.42607,4.36413 0.57425,1.91667 2.47529,2.63457 4.58607,1.73185 0.4265,-0.1824 0.56,-0.0869 0.56,0.40051 0,0.352 -0.22777,0.72741 -0.50617,0.83424 -1.0028,0.38481 -3.83045,0.19492 -4.54445,-0.30519 z m 6.71262,0.11342 c -1.06054,-1.06054 0.009,-3.134 1.61703,-3.134 1.7868898,0 2.3429398,-0.73232 1.3272598,-1.748 -0.47959,-0.47959 -0.86367,-0.46848 -2.2862898,0.0662 -0.22,0.0827 -0.4,-0.0643 -0.4,-0.32659 0,-1.00247 2.8945498,-1.17702 3.8399998,-0.23156 0.53185,0.53185 0.64,1.06666 0.64,3.16484 v 2.52485 l -2.178,0.0332 c -1.3038598,0.0198 -2.3313098,-0.12016 -2.5599998,-0.34885 z m 2.8728098,-0.78359 c 0.80601,-0.72944 0.76252,-1.71041 -0.0758,-1.71041 -1.5180698,0 -2.3507898,1.02018 -1.5149698,1.856 0.5180698,0.51807 0.8956598,0.48351 1.5908098,-0.14559 z m 3.78519,-1.9788 v -3.14839 l 2,-0.0259 c 3.11004,-0.0403 3.44,0.30601 3.44,3.61006 0,2.49929 -0.0503,2.71263 -0.64,2.71263 -0.58256,0 -0.64,-0.21334 -0.64,-2.37714 0,-2.68633 -0.50798,-3.64729 -1.61489,-3.05489 -0.94733,0.50701 -1.26511,1.3839 -1.26511,3.49101 0,1.7277 -0.0703,1.94103 -0.64,1.94103 -0.59663,0 -0.64,-0.21333 -0.64,-3.14839 z m 7.68,0 v -3.14839 l 2,-0.0259 c 3.11004,-0.0403 3.44,0.30601 3.44,3.61006 0,2.49929 -0.0503,2.71263 -0.64,2.71263 -0.58256,0 -0.64,-0.21334 -0.64,-2.37714 0,-2.68633 -0.50798,-3.64729 -1.61488,-3.05489 -0.94734,0.50701 -1.26512,1.3839 -1.26512,3.49101 0,1.7277 -0.0703,1.94103 -0.64,1.94103 -0.59663,0 -0.64,-0.21333 -0.64,-3.14839 z m 7.422,2.76239 c -1.06054,-1.06054 0.009,-3.134 1.61703,-3.134 1.78689,0 2.34294,-0.73232 1.32726,-1.748 -0.47959,-0.47959 -0.86367,-0.46848 -2.28629,0.0662 -0.22,0.0827 -0.4,-0.0643 -0.4,-0.32659 0,-1.00247 2.89455,-1.17702 3.84,-0.23156 0.53185,0.53185 0.64001,1.06666 0.64001,3.16484 v 2.52485 l -2.17801,0.0332 c -1.30386,0.0198 -2.33131,-0.12016 -2.56,-0.34885 z m 2.87281,-0.78359 c 0.80601,-0.72944 0.76252,-1.71041 -0.0758,-1.71041 -1.51807,0 -2.35079,1.02018 -1.51497,1.856 0.51807,0.51807 0.89566,0.48351 1.59081,-0.14559 z m 3.99853,0.95626 c -0.11733,-0.11733 -0.21333,-0.39493 -0.21333,-0.61688 0,-0.29579 0.45116,-0.35698 1.68968,-0.22915 1.30037,0.13421 1.78571,0.0587 2.10644,-0.32777 0.6504,-0.78369 0.12733,-1.75826 -1.33939,-2.49552 -1.97393,-0.9922 -2.45673,-1.52666 -2.45673,-2.71956 0,-0.75108 0.21128,-1.1997 0.72,-1.52874 1.69963,-1.09935 4.08,-1.02401 4.08,0.12913 0,0.53973 -0.11311,0.58298 -0.82084,0.3139 -1.19159,-0.45304 -1.66177,-0.38948 -2.37191,0.32067 -0.8712,0.8712 -0.55807,1.4159 1.47289,2.5621 1.01236,0.57134 1.86868,1.31492 2.04334,1.77433 0.37268,0.9802 -0.0562,2.22528 -0.92713,2.69137 -0.69673,0.37288 -3.64297,0.46617 -3.98302,0.12612 z m 7.14667,-4.42667 c 0,-3.91111 0.0754,-4.64 0.48,-4.64 0.36822,0 0.48,0.40801 0.48,1.75208 0,1.74852 0.002,1.75145 0.82083,1.44 1.23879,-0.47099 1.99173,-0.37951 2.69917,0.32792 0.53333,0.53334 0.64,1.06667 0.64,3.2 0,2.06222 -0.0933,2.56 -0.48,2.56 -0.37497,0 -0.48104,-0.43765 -0.48472,-2 -0.008,-3.1917 -1.11378,-4.5615 -2.53561,-3.13967 -0.54058,0.54058 -0.65967,1.06407 -0.65967,2.89967 0,1.77778 -0.0991,2.24 -0.48,2.24 -0.4046,0 -0.48,-0.72889 -0.48,-4.64 z m 7.89505,3.98614 c -0.4856,-0.38197 -0.92032,-1.12864 -1.04545,-1.7956 -0.4456,-2.37529 1.44574,-4.26652 3.82113,-3.82089 1.60527,0.30115 2.28927,1.23684 2.28927,3.13166 0,1.34987 -0.13756,1.71243 -0.89785,2.3664 -1.14402,0.98405 -2.9996,1.03678 -4.1671,0.11843 z m 3.4468,-0.69734 c 1.1301,-1.61345 0.23649,-4.4088 -1.40939,-4.4088 -0.98606,0 -1.93246,1.24842 -1.93246,2.54914 0,1.55422 0.75926,2.57086 1.92,2.57086 0.59177,0 1.10271,-0.25556 1.42185,-0.7112 z m 4.14219,0.88449 c -0.84555,-0.61828 -1.12941,-5.93329 -0.31688,-5.93329 0.41524,0 0.51374,0.38061 0.51755,2 0.006,2.36346 0.51593,3.55788 1.58537,3.71039 1.187,0.16928 1.60992,-0.7164 1.60992,-3.37155 0,-2.1255 0.0584,-2.33884 0.64,-2.33884 0.59669,0 0.64,0.21334 0.64,3.15279 v 3.15279 l -2.03596,0.0347 c -1.27642,0.0218 -2.2613,-0.13008 -2.64,-0.40699 z m 7.93996,0.0827 c -0.23303,-0.23303 -0.384,-1.36534 -0.384,-2.88 0,-2.28267 -0.0547,-2.496 -0.64,-2.496 -0.352,0 -0.64,-0.144 -0.64,-0.32 0,-0.176 0.288,-0.32 0.64,-0.32 0.4617,0 0.64,-0.21334 0.64,-0.76577 0,-0.42117 0.216,-0.84865 0.48,-0.94995 0.36023,-0.13824 0.48,0.0528 0.48,0.76576 0,0.79995 0.12632,0.94996 0.8,0.94996 0.44,0 0.8,0.144 0.8,0.32 0,0.176 -0.36606,0.32 -0.81346,0.32 -0.80935,0 -0.81299,0.0125 -0.72,2.48 0.0882,2.33964 0.13421,2.47856 0.81346,2.45459 0.39834,-0.014 0.72,0.16464 0.72,0.4 0,0.5363 -1.64972,0.5677 -2.176,0.0414 z m -33.49674,-14.73601 c -0.27997,-0.396 -0.73141,-1.512 -1.0032,-2.48 -0.27179,-0.968 -0.5646,-2.012 -0.65068,-2.32 -0.13539,-0.48442 0.081,-0.56 1.60326,-0.56 1.6261,0 1.81382,0.079 2.47128,1.04 0.39133,0.572 1.28464,1.64132 1.98513,2.37628 1.48998,1.56327 1.41456,2.16967 -0.30521,2.45381 -2.41467,0.39896 -3.5585,0.25667 -4.10058,-0.51009 z m -14.76359,-0.88495 c 0.37503,-2.34531 1.18435,-3.79206 3.12785,-5.59139 2.14614,-1.98695 3.28994,-2.3285 2.95926,-0.88366 -0.29597,1.29318 -1.61567,4.15271 -2.34359,5.07811 -0.88414,1.124 -2.90105,2.68189 -3.47209,2.68189 -0.37747,0 -0.43406,-0.2679 -0.27143,-1.28495 z m 25.33731,-1.31571 c -1.50849,-1.18658 -2.74256,-4.22174 -3.10607,-7.63934 -0.58013,-5.45421 0.23025,-9.8133802 2.13528,-11.4860302 1.29735,-1.13909 1.44651,-1.16724 2.71325,-0.51219 4.17941,2.16126 5.0699,16.0755002 1.2562,19.6285002 -0.93689,0.87285 -1.89683,0.87575 -2.99866,0.009 z m 2.53046,-3.65676 c 0.52096,-1.04166 0.62981,-1.90648 0.62213,-4.94258 -0.0103,-4.07873 -0.64085,-6.9072802 -1.79759,-8.0640202 l -0.67882,-0.67881 -0.56285,0.69509 c -1.34251,1.65793 -1.63402,6.7807102 -0.61303,10.7727802 0.63326,2.47599 1.38666,3.79022 2.05536,3.58532 0.18884,-0.0579 0.62751,-0.67337 0.9748,-1.36778 z m -2.51721,-4.48875 c -0.26081,-0.67966 -0.20699,-2.70645 0.0921,-3.46995 0.23407,-0.59746 0.26248,-0.59503 0.93751,0.08 0.75107,0.75107 0.91737,2.24479 0.36487,3.27716 -0.40061,0.74855 -1.12797,0.80738 -1.39451,0.11279 z m -4.9338,5.38762 c -1.60922,-1.12159 -1.81654,-1.17667 -5.17508,-1.37469 -2.17449,-0.1282 -3.69428,-0.36858 -4.01542,-0.63511 -1.48971,-1.23635 -2.19349,-4.5393 -1.40862,-6.61082 0.65887,-1.73895 1.48065,-2.2818902 3.7741,-2.4935202 3.13494,-0.28928 4.67513,-0.76659 6.36816,-1.97351 1.18874,-0.84742 1.5391,-0.97485 1.62138,-0.5897 0.19376,0.90714 -1.0804,2.54873 -2.63503,3.3948802 -1.94528,1.05877 -2.09904,1.31779 -2.10503,3.54597 -0.007,2.55821 0.41957,3.3248 2.0824,3.74351 0.85867,0.21621 1.68075,0.71394 2.20162,1.33296 0.78295,0.93049 1.38534,2.411 1.09792,2.69841 -0.0715,0.0715 -0.88439,-0.39576 -1.8064,-1.03838 z m 13.38239,-0.34086 c -1.80873,-0.70065 -2.14831,-1.66142 -0.58629,-1.6588 0.58491,9.6e-4 1.61228,0.15418 2.28304,0.34044 0.99297,0.27574 1.20108,0.46865 1.12,1.03822 -0.12857,0.90324 -0.98765,0.98868 -2.81675,0.28014 z m -41.68636,-1.03794 c -0.66194,-0.11168 -1.28548,-0.28499 -1.38563,-0.38515 -0.3030698,-0.30307 3.11034,-2.83949 4.98916,-3.70733 1.46311,-0.67581 2.36728,-0.83637 5.36,-0.95183 2.08646,-0.0805 3.6,-0.0147 3.6,0.15645 0,0.16243 -0.54,0.8111 -1.2,1.4415 -1.66997,1.59507 -5.24556,2.94539 -9.36,3.5348 -0.44,0.063 -1.34159,0.0232 -2.00353,-0.0884 z m 41.07877,-5.54019 c -0.58176,-0.70098 0.2594,-1.13584 2.38799,-1.23452 1.72169,-0.0798 1.90571,-0.0253 1.99357,0.59035 0.0687,0.4817 -0.11676,0.73548 -0.64,0.87563 -1.3003,0.34827 -3.3665,0.22045 -3.74156,-0.23146 z m -31.53866,-1.84278 c -2.64996,-0.62091 -5.93686,-2.5157502 -8.16195,-4.7052102 -2.01235,-1.98012 -5.1346298,-6.27958 -5.1346298,-7.07049995 0,-0.89355 5.2632698,0.28856 8.6011298,1.93177995 2.49964,1.23057 6.20196,4.7752 7.68016,7.35306 1.38965,2.4234202 1.33381,2.8591102 -0.36129,2.8190502 -0.748,-0.0177 -1.92854,-0.16536 -2.62342,-0.32818 z m 30.11093,-3.6988402 c -0.43395,-0.43395 -0.17358,-0.94289 0.76647,-1.49819 2.05839,-1.21592 3.85279,-1.24788 3.39716,-0.0605 -0.2959,0.77108 -3.68318,2.03914 -4.16363,1.55869 z"
     id="path3709"
     inkscape:connector-curvature="0" />
</svg>
